<mxfile host="app.diagrams.net" agent="Mozilla/5.0 (X11; Linux x86_64; rv:128.0) Gecko/20100101 Firefox/128.0" version="24.7.17">
  <diagram name="Page-1" id="91bDt_dY5whA3mvqs0ca">
    <mxGraphModel dx="4800" dy="4345" grid="1" gridSize="10" guides="1" tooltips="1" connect="1" arrows="0" fold="1" page="0" pageScale="1" pageWidth="850" pageHeight="1100" math="0" shadow="0">
      <root>
        <mxCell id="0" />
        <mxCell id="1" parent="0" />
        <mxCell id="8MulAuokKk0QeZYwtANd-4" value="" style="group;fontSize=6;" parent="1" vertex="1" connectable="0">
          <mxGeometry x="220.00499999999988" y="50" width="850" height="3370" as="geometry" />
        </mxCell>
        <mxCell id="8MulAuokKk0QeZYwtANd-128" value="Adorable..." style="shape=parallelogram;perimeter=parallelogramPerimeter;whiteSpace=wrap;html=1;fixedSize=1;fillColor=#e1d5e7;strokeColor=#9673a6;" parent="8MulAuokKk0QeZYwtANd-4" vertex="1">
          <mxGeometry x="-75.00499999999988" y="1076" width="167" height="60" as="geometry" />
        </mxCell>
        <mxCell id="MD3KYwX28Hf3VP3Z5keq-16" style="edgeStyle=none;curved=1;rounded=0;orthogonalLoop=1;jettySize=auto;html=1;fontSize=12;startSize=8;endSize=8;" parent="8MulAuokKk0QeZYwtANd-4" source="8MulAuokKk0QeZYwtANd-153" target="8MulAuokKk0QeZYwtANd-154" edge="1">
          <mxGeometry relative="1" as="geometry" />
        </mxCell>
        <mxCell id="8MulAuokKk0QeZYwtANd-153" value="Función defensa()" style="shape=note;whiteSpace=wrap;html=1;backgroundOutline=1;darkOpacity=0.05;fillColor=#fff2cc;strokeColor=#d6b656;" parent="8MulAuokKk0QeZYwtANd-4" vertex="1">
          <mxGeometry x="535.4750000000001" y="1100" width="267" height="100" as="geometry" />
        </mxCell>
        <mxCell id="MD3KYwX28Hf3VP3Z5keq-15" style="edgeStyle=none;curved=1;rounded=0;orthogonalLoop=1;jettySize=auto;html=1;fontSize=12;startSize=8;endSize=8;" parent="8MulAuokKk0QeZYwtANd-4" source="8MulAuokKk0QeZYwtANd-154" target="8MulAuokKk0QeZYwtANd-156" edge="1">
          <mxGeometry relative="1" as="geometry" />
        </mxCell>
        <mxCell id="8MulAuokKk0QeZYwtANd-154" value="Inicio" style="rounded=1;whiteSpace=wrap;html=1;strokeColor=#6c8ebf;align=center;verticalAlign=middle;fontFamily=Helvetica;fontSize=12;fillColor=#dae8fc;" parent="8MulAuokKk0QeZYwtANd-4" vertex="1">
          <mxGeometry x="608.97" y="1230" width="120" height="50" as="geometry" />
        </mxCell>
        <mxCell id="MD3KYwX28Hf3VP3Z5keq-64" style="edgeStyle=none;curved=1;rounded=0;orthogonalLoop=1;jettySize=auto;html=1;fontSize=12;startSize=8;endSize=8;" parent="8MulAuokKk0QeZYwtANd-4" source="8MulAuokKk0QeZYwtANd-156" target="MD3KYwX28Hf3VP3Z5keq-63" edge="1">
          <mxGeometry relative="1" as="geometry" />
        </mxCell>
        <mxCell id="8MulAuokKk0QeZYwtANd-156" value="estado_defensa[turno] = true" style="rounded=1;whiteSpace=wrap;html=1;strokeColor=#82b366;align=center;verticalAlign=middle;fontFamily=Helvetica;fontSize=12;fillColor=#d5e8d4;" parent="8MulAuokKk0QeZYwtANd-4" vertex="1">
          <mxGeometry x="575.7" y="1310" width="186.54" height="60" as="geometry" />
        </mxCell>
        <mxCell id="MD3KYwX28Hf3VP3Z5keq-11" value="&lt;font style=&quot;font-size: 14px;&quot;&gt;bool estado_defensa[players] = false&lt;br&gt;bool estado_curacion[players] = false&lt;br&gt;&lt;/font&gt;" style="html=1;overflow=block;blockSpacing=1;whiteSpace=wrap;fontSize=16.7;spacing=9;strokeColor=#82b366;strokeOpacity=100;fillOpacity=100;rounded=1;absoluteArcSize=1;arcSize=12;fillColor=#d5e8d4;strokeWidth=NaN;lucidId=~~ifwKt4dinZ;" parent="8MulAuokKk0QeZYwtANd-4" vertex="1">
          <mxGeometry x="540" y="-10" width="270" height="50" as="geometry" />
        </mxCell>
        <mxCell id="MD3KYwX28Hf3VP3Z5keq-19" value="&lt;font style=&quot;font-size: 14px;&quot;&gt;El oponente utilizó defensa anteriormente?&lt;/font&gt;" style="rhombus;whiteSpace=wrap;html=1;fillColor=#f8cecc;strokeColor=#b85450;" parent="8MulAuokKk0QeZYwtANd-4" vertex="1">
          <mxGeometry x="-126.12499999999989" y="1590" width="196.5" height="80" as="geometry" />
        </mxCell>
        <mxCell id="MD3KYwX28Hf3VP3Z5keq-22" value="daño / 2" style="whiteSpace=wrap;html=1;fillColor=#d5e8d4;strokeColor=#82b366;" parent="8MulAuokKk0QeZYwtANd-4" vertex="1">
          <mxGeometry x="158.63" y="1600" width="191.37" height="60" as="geometry" />
        </mxCell>
        <mxCell id="MD3KYwX28Hf3VP3Z5keq-23" value="" style="edgeStyle=none;curved=1;rounded=0;orthogonalLoop=1;jettySize=auto;html=1;fontSize=12;startSize=8;endSize=8;" parent="8MulAuokKk0QeZYwtANd-4" source="MD3KYwX28Hf3VP3Z5keq-19" target="MD3KYwX28Hf3VP3Z5keq-22" edge="1">
          <mxGeometry relative="1" as="geometry" />
        </mxCell>
        <mxCell id="MD3KYwX28Hf3VP3Z5keq-24" value="&quot;·yes" style="edgeLabel;html=1;align=center;verticalAlign=middle;resizable=0;points=[];fontSize=12;" parent="MD3KYwX28Hf3VP3Z5keq-23" vertex="1" connectable="0">
          <mxGeometry x="-0.1483" relative="1" as="geometry">
            <mxPoint as="offset" />
          </mxGeometry>
        </mxCell>
        <mxCell id="MD3KYwX28Hf3VP3Z5keq-26" value="Cambiar el estado_defensa del oponente a false" style="rounded=1;whiteSpace=wrap;html=1;fillColor=#d5e8d4;strokeColor=#82b366;" parent="8MulAuokKk0QeZYwtANd-4" vertex="1">
          <mxGeometry x="398.6250000000001" y="1600" width="120" height="60" as="geometry" />
        </mxCell>
        <mxCell id="MD3KYwX28Hf3VP3Z5keq-25" style="edgeStyle=none;curved=1;rounded=0;orthogonalLoop=1;jettySize=auto;html=1;fontSize=12;startSize=8;endSize=8;" parent="8MulAuokKk0QeZYwtANd-4" source="MD3KYwX28Hf3VP3Z5keq-22" target="MD3KYwX28Hf3VP3Z5keq-26" edge="1">
          <mxGeometry relative="1" as="geometry">
            <mxPoint x="398.6250000000001" y="1630" as="targetPoint" />
          </mxGeometry>
        </mxCell>
        <mxCell id="MD3KYwX28Hf3VP3Z5keq-63" value="FIN" style="ellipse;whiteSpace=wrap;html=1;fillColor=#f8cecc;strokeColor=#b85450;" parent="8MulAuokKk0QeZYwtANd-4" vertex="1">
          <mxGeometry x="613.46" y="1390" width="111.02" height="50" as="geometry" />
        </mxCell>
        <mxCell id="MD3KYwX28Hf3VP3Z5keq-33" value="Actualizar valores en pantalla" style="rounded=1;whiteSpace=wrap;html=1;fillColor=#d5e8d4;strokeColor=#82b366;" parent="8MulAuokKk0QeZYwtANd-4" vertex="1">
          <mxGeometry x="-87.87499999999989" y="1900" width="120" height="60" as="geometry" />
        </mxCell>
        <mxCell id="8MulAuokKk0QeZYwtANd-15" value="terminar" style="html=1;overflow=block;blockSpacing=1;whiteSpace=wrap;fontSize=16.7;spacing=3.8;strokeColor=#36393d;strokeOpacity=100;fillOpacity=100;rounded=1;absoluteArcSize=1;arcSize=12;fillColor=#FFCCCC;strokeWidth=NaN;lucidId=FfjfdtA3SWQb;" parent="8MulAuokKk0QeZYwtANd-4" vertex="1">
          <mxGeometry x="446.1" y="202.28" width="72.53" height="46.54" as="geometry" />
        </mxCell>
        <mxCell id="8MulAuokKk0QeZYwtANd-22" value="contador = turno;&lt;br&gt;Oponente = contador + 1 % 2" style="rounded=1;whiteSpace=wrap;html=1;fillColor=#d5e8d4;strokeColor=#82b366;" parent="8MulAuokKk0QeZYwtANd-4" vertex="1">
          <mxGeometry x="588.96" y="285.09" width="173.43" height="40.22" as="geometry" />
        </mxCell>
        <mxCell id="8MulAuokKk0QeZYwtANd-11" value="" style="html=1;jettySize=18;whiteSpace=wrap;fontSize=13.3;fontColor=#333333;fontStyle=1;strokeColor=#3a414a;strokeOpacity=100;strokeWidth=0.8;rounded=1;arcSize=12;edgeStyle=orthogonalEdgeStyle;startArrow=none;endArrow=block;endFill=1;exitX=0.5;exitY=0.986;exitPerimeter=0;lucidId=Sejf-nCVQEBm;" parent="8MulAuokKk0QeZYwtANd-4" target="8MulAuokKk0QeZYwtANd-22" edge="1">
          <mxGeometry width="100" height="100" relative="1" as="geometry">
            <Array as="points">
              <mxPoint x="670.6910843373494" y="295.8592307692308" />
              <mxPoint x="670.6910843373494" y="295.8592307692308" />
            </Array>
            <mxPoint x="677.6308433734939" y="273.7713186813187" as="targetPoint" />
            <mxPoint x="670.883855421686" y="280.00010989010985" as="sourcePoint" />
          </mxGeometry>
        </mxCell>
        <mxCell id="8MulAuokKk0QeZYwtANd-12" value="Yes" style="text;html=1;resizable=0;labelBackgroundColor=default;align=center;verticalAlign=middle;fontStyle=1;fontColor=#333333;fontSize=13.3;" parent="8MulAuokKk0QeZYwtANd-11" vertex="1">
          <mxGeometry relative="1" as="geometry">
            <mxPoint x="5" y="-12" as="offset" />
          </mxGeometry>
        </mxCell>
        <mxCell id="8MulAuokKk0QeZYwtANd-21" value="" style="edgeStyle=none;curved=1;rounded=0;orthogonalLoop=1;jettySize=auto;html=1;fontSize=12;startSize=8;endSize=8;" parent="8MulAuokKk0QeZYwtANd-4" source="8MulAuokKk0QeZYwtANd-22" target="8MulAuokKk0QeZYwtANd-24" edge="1">
          <mxGeometry relative="1" as="geometry" />
        </mxCell>
        <mxCell id="8MulAuokKk0QeZYwtANd-23" value="" style="edgeStyle=none;curved=1;rounded=0;orthogonalLoop=1;jettySize=auto;html=1;fontSize=12;startSize=8;endSize=8;" parent="8MulAuokKk0QeZYwtANd-4" source="8MulAuokKk0QeZYwtANd-24" edge="1">
          <mxGeometry relative="1" as="geometry">
            <mxPoint x="820.436265375967" y="381.7966893343383" as="targetPoint" />
          </mxGeometry>
        </mxCell>
        <mxCell id="8MulAuokKk0QeZYwtANd-24" value="&lt;font style=&quot;font-size: 11px;&quot;&gt;&lt;br&gt;&lt;font style=&quot;font-size: 11px;&quot;&gt;&quot;player &quot; $turno, ¿Qué harás TÚ?&lt;br&gt;&lt;/font&gt;&lt;/font&gt;&lt;div style=&quot;font-size: 11px;&quot;&gt;&lt;font style=&quot;font-size: 11px;&quot;&gt;&lt;span style=&quot;white-space: pre;&quot;&gt;&#x9;&lt;/span&gt;A - Ataque básico&lt;/font&gt;&lt;/div&gt;&lt;div style=&quot;font-size: 11px;&quot;&gt;&lt;font style=&quot;font-size: 11px;&quot;&gt;D- Defensa&lt;/font&gt;&lt;/div&gt;&lt;div style=&quot;font-size: 11px;&quot;&gt;&lt;font style=&quot;font-size: 11px;&quot;&gt;C - Curación&lt;/font&gt;&lt;/div&gt;&lt;div style=&quot;font-size: 11px;&quot;&gt;S - Supercombo&lt;br&gt;&lt;/div&gt;&lt;div&gt;&lt;br&gt;&lt;/div&gt;" style="shape=parallelogram;perimeter=parallelogramPerimeter;whiteSpace=wrap;html=1;fixedSize=1;rounded=1;fillColor=#d5e8d4;strokeColor=#82b366;" parent="8MulAuokKk0QeZYwtANd-4" vertex="1">
          <mxGeometry x="558.36" y="347.4" width="225.06" height="67.69" as="geometry" />
        </mxCell>
        <mxCell id="8MulAuokKk0QeZYwtANd-38" value="" style="edgeStyle=none;curved=1;rounded=0;orthogonalLoop=1;jettySize=auto;html=1;fontSize=12;startSize=8;endSize=8;" parent="8MulAuokKk0QeZYwtANd-4" edge="1">
          <mxGeometry relative="1" as="geometry">
            <mxPoint x="850.0011153721368" y="403.1954119914736" as="sourcePoint" />
            <mxPoint x="848.4273867931254" y="433.09197802197815" as="targetPoint" />
          </mxGeometry>
        </mxCell>
        <mxCell id="8MulAuokKk0QeZYwtANd-74" style="edgeStyle=none;curved=1;rounded=0;orthogonalLoop=1;jettySize=auto;html=1;fontSize=12;startSize=8;endSize=8;" parent="1" source="8MulAuokKk0QeZYwtANd-70" target="8MulAuokKk0QeZYwtANd-72" edge="1">
          <mxGeometry relative="1" as="geometry" />
        </mxCell>
        <mxCell id="8MulAuokKk0QeZYwtANd-70" value="INICIO" style="rounded=1;whiteSpace=wrap;html=1;fillColor=#dae8fc;strokeColor=#6c8ebf;" parent="1" vertex="1">
          <mxGeometry x="-675" y="745" width="174" height="74" as="geometry" />
        </mxCell>
        <mxCell id="8MulAuokKk0QeZYwtANd-71" value="Funcion ataque_basico()" style="shape=note;whiteSpace=wrap;html=1;backgroundOutline=1;darkOpacity=0.05;fillColor=#fff2cc;strokeColor=#d6b656;" parent="1" vertex="1">
          <mxGeometry x="-712" y="624" width="267" height="100" as="geometry" />
        </mxCell>
        <mxCell id="8MulAuokKk0QeZYwtANd-75" style="edgeStyle=none;curved=1;rounded=0;orthogonalLoop=1;jettySize=auto;html=1;fontSize=12;startSize=8;endSize=8;" parent="1" source="8MulAuokKk0QeZYwtANd-72" target="8MulAuokKk0QeZYwtANd-73" edge="1">
          <mxGeometry relative="1" as="geometry" />
        </mxCell>
        <mxCell id="8MulAuokKk0QeZYwtANd-72" value="daño = un numero aleatorio entre 1 y la mitad de los puntos de atk del atacante" style="rounded=1;whiteSpace=wrap;html=1;fillColor=#d5e8d4;strokeColor=#82b366;" parent="1" vertex="1">
          <mxGeometry x="-715" y="852" width="254" height="60" as="geometry" />
        </mxCell>
        <mxCell id="MD3KYwX28Hf3VP3Z5keq-36" style="edgeStyle=none;curved=1;rounded=0;orthogonalLoop=1;jettySize=auto;html=1;fontSize=12;startSize=8;endSize=8;" parent="1" source="8MulAuokKk0QeZYwtANd-73" target="8MulAuokKk0QeZYwtANd-116" edge="1">
          <mxGeometry relative="1" as="geometry" />
        </mxCell>
        <mxCell id="8MulAuokKk0QeZYwtANd-73" value="inflingir_daño(oponente, daño)" style="rounded=1;whiteSpace=wrap;html=1;fillColor=#d5e8d4;strokeColor=#82b366;" parent="1" vertex="1">
          <mxGeometry x="-711.5" y="939" width="247" height="60" as="geometry" />
        </mxCell>
        <mxCell id="8MulAuokKk0QeZYwtANd-113" style="edgeStyle=none;curved=1;rounded=0;orthogonalLoop=1;jettySize=auto;html=1;entryX=0.5;entryY=0;entryDx=0;entryDy=0;fontSize=12;startSize=8;endSize=8;exitX=0.5;exitY=1;exitDx=0;exitDy=0;" parent="1" source="8MulAuokKk0QeZYwtANd-119" target="8MulAuokKk0QeZYwtANd-80" edge="1">
          <mxGeometry relative="1" as="geometry">
            <mxPoint x="-581.6224193548387" y="1173" as="sourcePoint" />
            <mxPoint x="-581.625" y="1204.9999999999995" as="targetPoint" />
          </mxGeometry>
        </mxCell>
        <mxCell id="aJ4x3dVP8UDvJIEj5JMi-94" style="edgeStyle=none;curved=1;rounded=0;orthogonalLoop=1;jettySize=auto;html=1;exitX=0.5;exitY=1;exitDx=0;exitDy=0;entryX=0.5;entryY=0;entryDx=0;entryDy=0;fontSize=12;startSize=8;endSize=8;" edge="1" parent="1" source="8MulAuokKk0QeZYwtANd-78" target="aJ4x3dVP8UDvJIEj5JMi-93">
          <mxGeometry relative="1" as="geometry" />
        </mxCell>
        <mxCell id="8MulAuokKk0QeZYwtANd-78" value="&lt;div&gt;&quot;Tus puntos de ataque han disminuido&quot;&lt;/div&gt;" style="shape=parallelogram;perimeter=parallelogramPerimeter;whiteSpace=wrap;html=1;fixedSize=1;fillColor=#e1d5e7;strokeColor=#9673a6;" parent="1" vertex="1">
          <mxGeometry x="-708.12" y="1502" width="233" height="68" as="geometry" />
        </mxCell>
        <mxCell id="MD3KYwX28Hf3VP3Z5keq-2" style="edgeStyle=none;curved=1;rounded=0;orthogonalLoop=1;jettySize=auto;html=1;fontSize=12;startSize=8;endSize=8;" parent="1" target="MD3KYwX28Hf3VP3Z5keq-1" edge="1">
          <mxGeometry relative="1" as="geometry">
            <mxPoint x="-595.18375" y="1261.5000000000005" as="sourcePoint" />
          </mxGeometry>
        </mxCell>
        <mxCell id="8MulAuokKk0QeZYwtANd-80" value="Restar $daño al atk del atacante&lt;br&gt;player[turno].atk -= daño " style="rounded=1;whiteSpace=wrap;html=1;fillColor=#d5e8d4;strokeColor=#82b366;" parent="1" vertex="1">
          <mxGeometry x="-700" y="1218.5" width="223.5" height="43" as="geometry" />
        </mxCell>
        <mxCell id="8MulAuokKk0QeZYwtANd-91" style="edgeStyle=none;curved=1;rounded=0;orthogonalLoop=1;jettySize=auto;html=1;fontSize=12;startSize=8;endSize=8;" parent="1" source="8MulAuokKk0QeZYwtANd-89" target="8MulAuokKk0QeZYwtANd-78" edge="1">
          <mxGeometry relative="1" as="geometry" />
        </mxCell>
        <mxCell id="8MulAuokKk0QeZYwtANd-89" value="Actualizar puntos de ataque en pantalla " style="rounded=1;whiteSpace=wrap;html=1;fillColor=#d5e8d4;strokeColor=#82b366;" parent="1" vertex="1">
          <mxGeometry x="-651.62" y="1396" width="120" height="60" as="geometry" />
        </mxCell>
        <mxCell id="8MulAuokKk0QeZYwtANd-133" style="edgeStyle=none;curved=1;rounded=0;orthogonalLoop=1;jettySize=auto;html=1;entryX=0.5;entryY=0;entryDx=0;entryDy=0;fontSize=12;startSize=8;endSize=8;" parent="1" source="8MulAuokKk0QeZYwtANd-116" target="8MulAuokKk0QeZYwtANd-119" edge="1">
          <mxGeometry relative="1" as="geometry" />
        </mxCell>
        <mxCell id="8MulAuokKk0QeZYwtANd-134" value="Yes" style="edgeLabel;html=1;align=center;verticalAlign=middle;resizable=0;points=[];fontSize=12;" parent="8MulAuokKk0QeZYwtANd-133" vertex="1" connectable="0">
          <mxGeometry x="-0.4586" relative="1" as="geometry">
            <mxPoint as="offset" />
          </mxGeometry>
        </mxCell>
        <mxCell id="8MulAuokKk0QeZYwtANd-116" value="El daño es igual al daño maximo?" style="rhombus;whiteSpace=wrap;html=1;fillColor=#f8cecc;strokeColor=#b85450;" parent="1" vertex="1">
          <mxGeometry x="-672.5" y="1016" width="169" height="71" as="geometry" />
        </mxCell>
        <mxCell id="8MulAuokKk0QeZYwtANd-146" style="edgeStyle=none;curved=1;rounded=0;orthogonalLoop=1;jettySize=auto;html=1;fontSize=12;startSize=8;endSize=8;" parent="1" edge="1">
          <mxGeometry relative="1" as="geometry">
            <mxPoint x="-588.7073529411766" y="1118" as="targetPoint" />
            <mxPoint x="-586.5476470588236" y="1076" as="sourcePoint" />
          </mxGeometry>
        </mxCell>
        <mxCell id="8MulAuokKk0QeZYwtANd-119" value="Invocaste a los dioses" style="shape=parallelogram;perimeter=parallelogramPerimeter;whiteSpace=wrap;html=1;fixedSize=1;fillColor=#e1d5e7;strokeColor=#9673a6;" parent="1" vertex="1">
          <mxGeometry x="-668.07" y="1113" width="160.13" height="60" as="geometry" />
        </mxCell>
        <mxCell id="8MulAuokKk0QeZYwtANd-130" style="edgeStyle=none;curved=1;rounded=0;orthogonalLoop=1;jettySize=auto;html=1;fontSize=12;startSize=8;endSize=8;" parent="1" source="8MulAuokKk0QeZYwtANd-120" target="8MulAuokKk0QeZYwtANd-122" edge="1">
          <mxGeometry relative="1" as="geometry" />
        </mxCell>
        <mxCell id="8MulAuokKk0QeZYwtANd-144" value="No" style="edgeLabel;html=1;align=center;verticalAlign=middle;resizable=0;points=[];fontSize=12;" parent="8MulAuokKk0QeZYwtANd-130" vertex="1" connectable="0">
          <mxGeometry x="-0.2798" y="2" relative="1" as="geometry">
            <mxPoint as="offset" />
          </mxGeometry>
        </mxCell>
        <mxCell id="8MulAuokKk0QeZYwtANd-137" style="edgeStyle=none;curved=1;rounded=0;orthogonalLoop=1;jettySize=auto;html=1;fontSize=12;startSize=8;endSize=8;" parent="1" source="8MulAuokKk0QeZYwtANd-120" target="8MulAuokKk0QeZYwtANd-121" edge="1">
          <mxGeometry relative="1" as="geometry" />
        </mxCell>
        <mxCell id="8MulAuokKk0QeZYwtANd-120" value="El daño es mayor al 75% del daño maximo?" style="rhombus;whiteSpace=wrap;html=1;fillColor=#f8cecc;strokeColor=#b85450;" parent="1" vertex="1">
          <mxGeometry x="-440" y="1016" width="169" height="87" as="geometry" />
        </mxCell>
        <mxCell id="8MulAuokKk0QeZYwtANd-147" style="edgeStyle=none;curved=1;rounded=0;orthogonalLoop=1;jettySize=auto;html=1;fontSize=12;startSize=8;endSize=8;" parent="1" edge="1">
          <mxGeometry relative="1" as="geometry">
            <mxPoint x="-352.4950000000001" y="1143" as="targetPoint" />
            <mxPoint x="-352.4950000000001" y="1076" as="sourcePoint" />
          </mxGeometry>
        </mxCell>
        <mxCell id="8MulAuokKk0QeZYwtANd-121" value="Has descargado tu ira!" style="shape=parallelogram;perimeter=parallelogramPerimeter;whiteSpace=wrap;html=1;fixedSize=1;fillColor=#e1d5e7;strokeColor=#9673a6;" parent="1" vertex="1">
          <mxGeometry x="-435.56000000000006" y="1113" width="160.13" height="60" as="geometry" />
        </mxCell>
        <mxCell id="8MulAuokKk0QeZYwtANd-131" style="edgeStyle=none;curved=1;rounded=0;orthogonalLoop=1;jettySize=auto;html=1;fontSize=12;startSize=8;endSize=8;" parent="1" source="8MulAuokKk0QeZYwtANd-122" target="8MulAuokKk0QeZYwtANd-124" edge="1">
          <mxGeometry relative="1" as="geometry" />
        </mxCell>
        <mxCell id="8MulAuokKk0QeZYwtANd-143" value="No" style="edgeLabel;html=1;align=center;verticalAlign=middle;resizable=0;points=[];fontSize=12;" parent="8MulAuokKk0QeZYwtANd-131" vertex="1" connectable="0">
          <mxGeometry x="-0.1707" y="2" relative="1" as="geometry">
            <mxPoint as="offset" />
          </mxGeometry>
        </mxCell>
        <mxCell id="8MulAuokKk0QeZYwtANd-138" style="edgeStyle=none;curved=1;rounded=0;orthogonalLoop=1;jettySize=auto;html=1;fontSize=12;startSize=8;endSize=8;" parent="1" source="8MulAuokKk0QeZYwtANd-122" target="8MulAuokKk0QeZYwtANd-123" edge="1">
          <mxGeometry relative="1" as="geometry" />
        </mxCell>
        <mxCell id="8MulAuokKk0QeZYwtANd-122" value="El daño es mayor o igual al 50% del daño maximo?" style="rhombus;whiteSpace=wrap;html=1;fillColor=#f8cecc;strokeColor=#b85450;" parent="1" vertex="1">
          <mxGeometry x="-235" y="1016" width="169" height="87" as="geometry" />
        </mxCell>
        <mxCell id="8MulAuokKk0QeZYwtANd-148" style="edgeStyle=none;curved=1;rounded=0;orthogonalLoop=1;jettySize=auto;html=1;fontSize=12;startSize=8;endSize=8;" parent="1" edge="1">
          <mxGeometry relative="1" as="geometry">
            <mxPoint x="-151.93499999999995" y="1143" as="targetPoint" />
            <mxPoint x="-151.93500000000017" y="1079" as="sourcePoint" />
          </mxGeometry>
        </mxCell>
        <mxCell id="8MulAuokKk0QeZYwtANd-123" value="Tuviste suerte..." style="shape=parallelogram;perimeter=parallelogramPerimeter;whiteSpace=wrap;html=1;fixedSize=1;fillColor=#e1d5e7;strokeColor=#9673a6;" parent="1" vertex="1">
          <mxGeometry x="-235.00000000000006" y="1116" width="160.13" height="60" as="geometry" />
        </mxCell>
        <mxCell id="8MulAuokKk0QeZYwtANd-132" style="edgeStyle=none;curved=1;rounded=0;orthogonalLoop=1;jettySize=auto;html=1;fontSize=12;startSize=8;endSize=8;" parent="1" source="8MulAuokKk0QeZYwtANd-124" target="8MulAuokKk0QeZYwtANd-126" edge="1">
          <mxGeometry relative="1" as="geometry" />
        </mxCell>
        <mxCell id="8MulAuokKk0QeZYwtANd-142" value="No" style="edgeLabel;html=1;align=center;verticalAlign=middle;resizable=0;points=[];fontSize=12;" parent="8MulAuokKk0QeZYwtANd-132" vertex="1" connectable="0">
          <mxGeometry x="0.088" y="-1" relative="1" as="geometry">
            <mxPoint as="offset" />
          </mxGeometry>
        </mxCell>
        <mxCell id="8MulAuokKk0QeZYwtANd-139" style="edgeStyle=none;curved=1;rounded=0;orthogonalLoop=1;jettySize=auto;html=1;fontSize=12;startSize=8;endSize=8;" parent="1" source="8MulAuokKk0QeZYwtANd-124" target="8MulAuokKk0QeZYwtANd-125" edge="1">
          <mxGeometry relative="1" as="geometry" />
        </mxCell>
        <mxCell id="8MulAuokKk0QeZYwtANd-124" value="El daño es menor o igual al 25% del daño maximo" style="rhombus;whiteSpace=wrap;html=1;fillColor=#f8cecc;strokeColor=#b85450;" parent="1" vertex="1">
          <mxGeometry x="-20" y="1016" width="169" height="87" as="geometry" />
        </mxCell>
        <mxCell id="8MulAuokKk0QeZYwtANd-149" style="edgeStyle=none;curved=1;rounded=0;orthogonalLoop=1;jettySize=auto;html=1;fontSize=12;startSize=8;endSize=8;" parent="1" source="8MulAuokKk0QeZYwtANd-125" edge="1">
          <mxGeometry relative="1" as="geometry">
            <mxPoint x="64.5" y="1240" as="targetPoint" />
          </mxGeometry>
        </mxCell>
        <mxCell id="8MulAuokKk0QeZYwtANd-125" value="Quiza la proxima vez te vaya mejor" style="shape=parallelogram;perimeter=parallelogramPerimeter;whiteSpace=wrap;html=1;fixedSize=1;fillColor=#e1d5e7;strokeColor=#9673a6;" parent="1" vertex="1">
          <mxGeometry x="-28.78" y="1116" width="186.56" height="60" as="geometry" />
        </mxCell>
        <mxCell id="8MulAuokKk0QeZYwtANd-140" style="edgeStyle=none;curved=1;rounded=0;orthogonalLoop=1;jettySize=auto;html=1;fontSize=12;startSize=8;endSize=8;" parent="1" source="8MulAuokKk0QeZYwtANd-126" target="8MulAuokKk0QeZYwtANd-128" edge="1">
          <mxGeometry relative="1" as="geometry" />
        </mxCell>
        <mxCell id="8MulAuokKk0QeZYwtANd-126" value="El daño es igual al daño minimo?" style="rhombus;whiteSpace=wrap;html=1;fillColor=#f8cecc;strokeColor=#b85450;" parent="1" vertex="1">
          <mxGeometry x="181" y="1016" width="169" height="87" as="geometry" />
        </mxCell>
        <mxCell id="8MulAuokKk0QeZYwtANd-129" style="edgeStyle=none;curved=1;rounded=0;orthogonalLoop=1;jettySize=auto;html=1;entryX=0.087;entryY=0.5;entryDx=0;entryDy=0;entryPerimeter=0;fontSize=12;startSize=8;endSize=8;" parent="1" source="8MulAuokKk0QeZYwtANd-116" target="8MulAuokKk0QeZYwtANd-120" edge="1">
          <mxGeometry relative="1" as="geometry" />
        </mxCell>
        <mxCell id="8MulAuokKk0QeZYwtANd-135" value="no" style="edgeLabel;html=1;align=center;verticalAlign=middle;resizable=0;points=[];fontSize=12;" parent="8MulAuokKk0QeZYwtANd-129" vertex="1" connectable="0">
          <mxGeometry x="-0.2591" y="-3" relative="1" as="geometry">
            <mxPoint as="offset" />
          </mxGeometry>
        </mxCell>
        <mxCell id="8MulAuokKk0QeZYwtANd-136" style="edgeStyle=none;curved=1;rounded=0;orthogonalLoop=1;jettySize=auto;html=1;exitX=0.5;exitY=0;exitDx=0;exitDy=0;fontSize=12;startSize=8;endSize=8;" parent="1" source="8MulAuokKk0QeZYwtANd-121" target="8MulAuokKk0QeZYwtANd-121" edge="1">
          <mxGeometry relative="1" as="geometry" />
        </mxCell>
        <mxCell id="8MulAuokKk0QeZYwtANd-150" style="edgeStyle=none;curved=1;rounded=0;orthogonalLoop=1;jettySize=auto;html=1;fontSize=12;startSize=8;endSize=8;" parent="1" source="8MulAuokKk0QeZYwtANd-128" edge="1">
          <mxGeometry relative="1" as="geometry">
            <Array as="points">
              <mxPoint x="290" y="1245" />
              <mxPoint x="-140" y="1240" />
            </Array>
            <mxPoint x="-470" y="1241" as="targetPoint" />
          </mxGeometry>
        </mxCell>
        <mxCell id="8MulAuokKk0QeZYwtANd-5" value="inicio " style="html=1;overflow=block;blockSpacing=1;whiteSpace=wrap;fontSize=16.7;spacing=3.8;strokeColor=#6c8ebf;strokeOpacity=100;fillOpacity=100;rounded=1;absoluteArcSize=1;arcSize=12;fillColor=#dae8fc;strokeWidth=NaN;lucidId=2.ifzTGdsG4o;" parent="1" vertex="1">
          <mxGeometry x="854.6999397590359" y="-149.99736263736264" width="92.53012048192771" height="44.17582417582418" as="geometry" />
        </mxCell>
        <mxCell id="MD3KYwX28Hf3VP3Z5keq-12" style="edgeStyle=none;curved=1;rounded=0;orthogonalLoop=1;jettySize=auto;html=1;exitX=0.5;exitY=1;exitDx=0;exitDy=0;entryX=0.5;entryY=0;entryDx=0;entryDy=0;fontSize=12;startSize=8;endSize=8;" parent="1" source="8MulAuokKk0QeZYwtANd-6" target="MD3KYwX28Hf3VP3Z5keq-11" edge="1">
          <mxGeometry relative="1" as="geometry" />
        </mxCell>
        <mxCell id="8MulAuokKk0QeZYwtANd-6" value="&lt;font style=&quot;font-size: 12px;&quot;&gt;constante players = 2&lt;/font&gt;&lt;br&gt;&lt;font style=&quot;font-size: 12px;&quot;&gt;personaje player[players]&lt;/font&gt;&lt;br&gt;&lt;div&gt;&lt;font style=&quot;font-size: 13px;&quot;&gt;int turno = 0;&lt;/font&gt;&lt;/div&gt;&lt;div&gt;&lt;font style=&quot;font-size: 13px;&quot;&gt;Curaciones validas = 2&lt;br&gt;&lt;/font&gt;&lt;/div&gt;" style="html=1;overflow=block;blockSpacing=1;whiteSpace=wrap;fontSize=16.7;spacing=9;strokeColor=#82b366;strokeOpacity=100;fillOpacity=100;rounded=1;absoluteArcSize=1;arcSize=12;fillColor=#d5e8d4;strokeWidth=NaN;lucidId=~~ifwKt4dinZ;" parent="1" vertex="1">
          <mxGeometry x="811.04" y="-90" width="161.93" height="90" as="geometry" />
        </mxCell>
        <mxCell id="8MulAuokKk0QeZYwtANd-7" value="" style="html=1;jettySize=18;whiteSpace=wrap;fontSize=13;strokeColor=#3a414a;strokeOpacity=100;strokeWidth=0.8;rounded=1;arcSize=12;edgeStyle=orthogonalEdgeStyle;startArrow=none;endArrow=block;endFill=1;exitX=0.5;exitY=1.013;exitPerimeter=0;entryX=0.5;entryY=-0.01;entryPerimeter=0;lucidId=uajfyIUsAzoH;" parent="1" source="8MulAuokKk0QeZYwtANd-5" target="8MulAuokKk0QeZYwtANd-6" edge="1">
          <mxGeometry width="100" height="100" relative="1" as="geometry">
            <Array as="points" />
          </mxGeometry>
        </mxCell>
        <mxCell id="MD3KYwX28Hf3VP3Z5keq-14" style="edgeStyle=none;curved=1;rounded=0;orthogonalLoop=1;jettySize=auto;html=1;exitX=0.5;exitY=1;exitDx=0;exitDy=0;fontSize=12;startSize=8;endSize=8;" parent="1" source="8MulAuokKk0QeZYwtANd-9" target="8MulAuokKk0QeZYwtANd-19" edge="1">
          <mxGeometry relative="1" as="geometry" />
        </mxCell>
        <mxCell id="8MulAuokKk0QeZYwtANd-9" value="&lt;font style=&quot;font-size: 12px;&quot;&gt;select_player(player[], players. n)&lt;/font&gt;" style="html=1;overflow=block;blockSpacing=1;whiteSpace=wrap;fontSize=16.7;spacing=9;strokeColor=#82b366;strokeOpacity=100;fillOpacity=100;rounded=1;absoluteArcSize=1;arcSize=12;fillColor=#d5e8d4;strokeWidth=NaN;lucidId=HajfH8OLkU8W;" parent="1" vertex="1">
          <mxGeometry x="787.9086144578312" y="110.99450549450552" width="208.19277108433732" height="41.96703296703298" as="geometry" />
        </mxCell>
        <mxCell id="8MulAuokKk0QeZYwtANd-10" value="&amp;nbsp;player[turno].hp != 0?" style="html=1;overflow=block;blockSpacing=1;whiteSpace=wrap;rhombus;fontSize=16.7;spacing=3.8;strokeColor=#b85450;strokeOpacity=100;fillOpacity=100;rounded=1;absoluteArcSize=1;arcSize=12;fillColor=#f8cecc;strokeWidth=NaN;lucidId=Hcjfhm1jlUS8;" parent="1" vertex="1">
          <mxGeometry x="811.0411445783132" y="235.05494505494505" width="163.85542168674698" height="80.98901098901099" as="geometry" />
        </mxCell>
        <mxCell id="8MulAuokKk0QeZYwtANd-13" value="" style="html=1;jettySize=18;whiteSpace=wrap;fontSize=13.3;fontColor=#333333;fontStyle=1;strokeColor=#3a414a;strokeOpacity=100;strokeWidth=0.8;rounded=1;arcSize=12;edgeStyle=orthogonalEdgeStyle;startArrow=none;endArrow=block;endFill=1;exitX=0.019;exitY=0.5;exitPerimeter=0;entryX=1.006;entryY=0.5;entryPerimeter=0;lucidId=Vejf.2.pwwT7;" parent="1" source="8MulAuokKk0QeZYwtANd-10" target="8MulAuokKk0QeZYwtANd-15" edge="1">
          <mxGeometry width="100" height="100" relative="1" as="geometry">
            <Array as="points" />
          </mxGeometry>
        </mxCell>
        <mxCell id="8MulAuokKk0QeZYwtANd-14" value="No" style="text;html=1;resizable=0;labelBackgroundColor=default;align=center;verticalAlign=middle;fontStyle=1;fontColor=#333333;fontSize=13.3;" parent="8MulAuokKk0QeZYwtANd-13" vertex="1">
          <mxGeometry relative="1" as="geometry" />
        </mxCell>
        <mxCell id="8MulAuokKk0QeZYwtANd-16" value="&lt;h2 style=&quot;font-size: 16px;&quot;&gt;&lt;span style=&quot;font-weight: normal;&quot;&gt;se crea la constante pues el numero de jugadores en una ronda siempre sera igual a 2&lt;/span&gt;&lt;/h2&gt;" style="shape=note;whiteSpace=wrap;html=1;backgroundOutline=1;darkOpacity=0.05;fillColor=#fff2cc;strokeColor=#d6b656;" parent="1" vertex="1">
          <mxGeometry x="611.5249999999999" y="-137.24890109890111" width="177.34939759036143" height="147.25274725274727" as="geometry" />
        </mxCell>
        <mxCell id="8MulAuokKk0QeZYwtANd-17" value="&lt;font style=&quot;font-size: 11px;&quot;&gt;Recibir un numero aleatorio, determinar si es par o impar para empezar el juego&lt;br&gt;(Ej. si es par -&amp;gt; 0 + 1 = 1 turno del player 1.)&lt;/font&gt;" style="shape=note;whiteSpace=wrap;html=1;backgroundOutline=1;darkOpacity=0.05;fillColor=#fff2cc;size=19;fontStyle=0;strokeColor=#d6b656;" parent="1" vertex="1">
          <mxGeometry x="1003.8122289156626" y="152.96153846153848" width="208.19277108433732" height="73.62637362637363" as="geometry" />
        </mxCell>
        <mxCell id="8MulAuokKk0QeZYwtANd-18" style="edgeStyle=none;curved=1;rounded=0;orthogonalLoop=1;jettySize=auto;html=1;exitX=0.5;exitY=1;exitDx=0;exitDy=0;fontSize=12;startSize=8;endSize=8;" parent="1" source="8MulAuokKk0QeZYwtANd-19" target="8MulAuokKk0QeZYwtANd-10" edge="1">
          <mxGeometry relative="1" as="geometry" />
        </mxCell>
        <mxCell id="8MulAuokKk0QeZYwtANd-19" value="&lt;font style=&quot;font-size: 14px;&quot;&gt;srand(time(NULL))&lt;br&gt;turno = (rand() %&lt;/font&gt; 2) + 1" style="html=1;overflow=block;blockSpacing=1;whiteSpace=wrap;fontSize=16.7;spacing=9;strokeColor=#82b366;strokeOpacity=100;fillOpacity=100;rounded=1;absoluteArcSize=1;arcSize=12;fillColor=#d5e8d4;strokeWidth=NaN;lucidId=HajfH8OLkU8W;" parent="1" vertex="1">
          <mxGeometry x="788.8749999999999" y="165.38" width="208.19" height="61.21" as="geometry" />
        </mxCell>
        <mxCell id="8MulAuokKk0QeZYwtANd-25" value="" style="edgeStyle=none;curved=1;rounded=0;orthogonalLoop=1;jettySize=auto;html=1;fontSize=12;startSize=8;endSize=8;" parent="1" source="8MulAuokKk0QeZYwtANd-26" target="8MulAuokKk0QeZYwtANd-28" edge="1">
          <mxGeometry relative="1" as="geometry" />
        </mxCell>
        <mxCell id="8MulAuokKk0QeZYwtANd-26" value="A?" style="rhombus;whiteSpace=wrap;html=1;rounded=1;fillColor=#f8cecc;strokeColor=#b85450;" parent="1" vertex="1">
          <mxGeometry x="1042.3631927710842" y="394.7319780219782" width="61.68674698795181" height="44.17582417582418" as="geometry" />
        </mxCell>
        <mxCell id="8MulAuokKk0QeZYwtANd-27" value="Yes" style="text;whiteSpace=wrap;html=1;" parent="1" vertex="1">
          <mxGeometry x="1038.5019879518072" y="430.0046153846155" width="61.68674698795181" height="29.450549450549453" as="geometry" />
        </mxCell>
        <mxCell id="8MulAuokKk0QeZYwtANd-28" value="D?" style="rhombus;whiteSpace=wrap;html=1;rounded=1;fillColor=#f8cecc;strokeColor=#b85450;" parent="1" vertex="1">
          <mxGeometry x="1147.4331927710841" y="397.643076923077" width="61.68674698795181" height="44.17582417582418" as="geometry" />
        </mxCell>
        <mxCell id="8MulAuokKk0QeZYwtANd-29" value="No" style="text;whiteSpace=wrap;html=1;" parent="1" vertex="1">
          <mxGeometry x="1212.0012650602407" y="394.0678021978023" width="61.68674698795181" height="29.450549450549453" as="geometry" />
        </mxCell>
        <mxCell id="8MulAuokKk0QeZYwtANd-30" value="No" style="text;whiteSpace=wrap;html=1;" parent="1" vertex="1">
          <mxGeometry x="1283.0812650602409" y="475.71626373626384" width="61.68674698795181" height="29.450549450549453" as="geometry" />
        </mxCell>
        <mxCell id="8MulAuokKk0QeZYwtANd-31" value="Yes" style="text;whiteSpace=wrap;html=1;" parent="1" vertex="1">
          <mxGeometry x="1344.769939759036" y="443.4857142857144" width="61.68674698795181" height="29.450549450549453" as="geometry" />
        </mxCell>
        <mxCell id="8MulAuokKk0QeZYwtANd-32" value="Yes" style="text;whiteSpace=wrap;html=1;" parent="1" vertex="1">
          <mxGeometry x="1241.641987951807" y="438.2368131868133" width="61.68674698795181" height="29.450549450549453" as="geometry" />
        </mxCell>
        <mxCell id="8MulAuokKk0QeZYwtANd-33" value="No" style="text;whiteSpace=wrap;html=1;" parent="1" vertex="1">
          <mxGeometry x="1115.6112650602408" y="394.06626373626403" width="61.68674698795181" height="29.450549450549453" as="geometry" />
        </mxCell>
        <mxCell id="8MulAuokKk0QeZYwtANd-34" value="No" style="text;whiteSpace=wrap;html=1;" parent="1" vertex="1">
          <mxGeometry x="1307.481265060241" y="391.8162637362642" width="61.68674698795181" height="29.450549450549453" as="geometry" />
        </mxCell>
        <mxCell id="8MulAuokKk0QeZYwtANd-35" value="Yes" style="text;whiteSpace=wrap;html=1;" parent="1" vertex="1">
          <mxGeometry x="1136.5799397590363" y="438.23571428571427" width="61.68674698795181" height="29.450549450549453" as="geometry" />
        </mxCell>
        <mxCell id="8MulAuokKk0QeZYwtANd-36" style="edgeStyle=none;curved=1;rounded=0;orthogonalLoop=1;jettySize=auto;html=1;fontSize=12;startSize=8;endSize=8;" parent="1" source="8MulAuokKk0QeZYwtANd-37" edge="1">
          <mxGeometry relative="1" as="geometry">
            <mxPoint x="1069.0049999999999" y="560" as="targetPoint" />
          </mxGeometry>
        </mxCell>
        <mxCell id="8MulAuokKk0QeZYwtANd-37" value="ataque_basico()" style="whiteSpace=wrap;html=1;rounded=1;strokeColor=#82b366;fillColor=#d5e8d4;" parent="1" vertex="1">
          <mxGeometry x="1023.0846385542166" y="468.0019780219782" width="92.53012048192771" height="44.17582417582418" as="geometry" />
        </mxCell>
        <mxCell id="8MulAuokKk0QeZYwtANd-39" style="edgeStyle=none;curved=1;rounded=0;orthogonalLoop=1;jettySize=auto;html=1;entryX=1;entryY=0.5;entryDx=0;entryDy=0;fontSize=12;startSize=8;endSize=8;exitX=0.5;exitY=1;exitDx=0;exitDy=0;" parent="1" source="8MulAuokKk0QeZYwtANd-40" target="8MulAuokKk0QeZYwtANd-55" edge="1">
          <mxGeometry relative="1" as="geometry">
            <Array as="points">
              <mxPoint x="1392.0049999999999" y="560" />
              <mxPoint x="1192.0049999999999" y="560" />
            </Array>
          </mxGeometry>
        </mxCell>
        <mxCell id="8MulAuokKk0QeZYwtANd-40" value="supercombo()" style="whiteSpace=wrap;html=1;rounded=1;fillColor=#d5e8d4;strokeColor=#82b366;" parent="1" vertex="1">
          <mxGeometry x="1331.215" y="472.94" width="88.07" height="35" as="geometry" />
        </mxCell>
        <mxCell id="8MulAuokKk0QeZYwtANd-41" value="S?" style="rhombus;whiteSpace=wrap;html=1;rounded=1;fillColor=#f8cecc;strokeColor=#b85450;" parent="1" vertex="1">
          <mxGeometry x="1344.7649999999996" y="391.82000000000016" width="60.97" height="50" as="geometry" />
        </mxCell>
        <mxCell id="8MulAuokKk0QeZYwtANd-42" value="" style="edgeStyle=none;curved=1;rounded=0;orthogonalLoop=1;jettySize=auto;html=1;fontSize=12;startSize=8;endSize=8;" parent="1" source="8MulAuokKk0QeZYwtANd-41" target="8MulAuokKk0QeZYwtANd-40" edge="1">
          <mxGeometry relative="1" as="geometry" />
        </mxCell>
        <mxCell id="8MulAuokKk0QeZYwtANd-43" style="edgeStyle=none;curved=1;rounded=0;orthogonalLoop=1;jettySize=auto;html=1;entryX=0.5;entryY=0;entryDx=0;entryDy=0;fontSize=12;startSize=8;endSize=8;" parent="1" source="8MulAuokKk0QeZYwtANd-44" target="8MulAuokKk0QeZYwtANd-48" edge="1">
          <mxGeometry relative="1" as="geometry" />
        </mxCell>
        <mxCell id="8MulAuokKk0QeZYwtANd-44" value="C?" style="rhombus;whiteSpace=wrap;html=1;rounded=1;fillColor=#f8cecc;strokeColor=#b85450;" parent="1" vertex="1">
          <mxGeometry x="1241.643192771084" y="394.73417582417596" width="61.68674698795181" height="44.17582417582418" as="geometry" />
        </mxCell>
        <mxCell id="8MulAuokKk0QeZYwtANd-45" value="" style="edgeStyle=none;curved=1;rounded=0;orthogonalLoop=1;jettySize=auto;html=1;fontSize=12;startSize=8;endSize=8;" parent="1" source="8MulAuokKk0QeZYwtANd-28" target="8MulAuokKk0QeZYwtANd-44" edge="1">
          <mxGeometry relative="1" as="geometry" />
        </mxCell>
        <mxCell id="8MulAuokKk0QeZYwtANd-46" value="" style="edgeStyle=none;curved=1;rounded=0;orthogonalLoop=1;jettySize=auto;html=1;fontSize=12;startSize=8;endSize=8;" parent="1" source="8MulAuokKk0QeZYwtANd-44" target="8MulAuokKk0QeZYwtANd-41" edge="1">
          <mxGeometry relative="1" as="geometry" />
        </mxCell>
        <mxCell id="8MulAuokKk0QeZYwtANd-47" style="edgeStyle=none;curved=1;rounded=0;orthogonalLoop=1;jettySize=auto;html=1;fontSize=12;startSize=8;endSize=8;" parent="1" source="8MulAuokKk0QeZYwtANd-48" edge="1">
          <mxGeometry relative="1" as="geometry">
            <mxPoint x="1272.485" y="560" as="targetPoint" />
          </mxGeometry>
        </mxCell>
        <mxCell id="8MulAuokKk0QeZYwtANd-48" value="Curacion()" style="whiteSpace=wrap;html=1;rounded=1;fillColor=#d5e8d4;strokeColor=#82b366;" parent="1" vertex="1">
          <mxGeometry x="1237.485" y="468.3499999999999" width="70" height="44.18" as="geometry" />
        </mxCell>
        <mxCell id="8MulAuokKk0QeZYwtANd-49" style="edgeStyle=none;curved=1;rounded=0;orthogonalLoop=1;jettySize=auto;html=1;fontSize=12;startSize=8;endSize=8;" parent="1" source="8MulAuokKk0QeZYwtANd-50" edge="1">
          <mxGeometry relative="1" as="geometry">
            <mxPoint x="1178.2722289156625" y="560" as="targetPoint" />
          </mxGeometry>
        </mxCell>
        <mxCell id="8MulAuokKk0QeZYwtANd-50" value="defensa()" style="whiteSpace=wrap;html=1;rounded=1;fillColor=#d5e8d4;strokeColor=#82b366;" parent="1" vertex="1">
          <mxGeometry x="1132.0071686746987" y="468.35307692307697" width="92.53012048192771" height="44.17582417582418" as="geometry" />
        </mxCell>
        <mxCell id="8MulAuokKk0QeZYwtANd-51" value="" style="edgeStyle=none;curved=1;rounded=0;orthogonalLoop=1;jettySize=auto;html=1;fontSize=12;startSize=8;endSize=8;" parent="1" source="8MulAuokKk0QeZYwtANd-28" target="8MulAuokKk0QeZYwtANd-50" edge="1">
          <mxGeometry relative="1" as="geometry" />
        </mxCell>
        <mxCell id="8MulAuokKk0QeZYwtANd-52" style="edgeStyle=none;curved=1;rounded=0;orthogonalLoop=1;jettySize=auto;html=1;fontSize=12;startSize=8;endSize=8;" parent="1" edge="1">
          <mxGeometry relative="1" as="geometry">
            <mxPoint x="1552.0049999999999" y="420" as="sourcePoint" />
            <mxPoint x="992.0049999999999" y="380" as="targetPoint" />
            <Array as="points">
              <mxPoint x="1552.0049999999999" y="400" />
              <mxPoint x="1552.0049999999999" y="370" />
              <mxPoint x="1522.0049999999999" y="360" />
              <mxPoint x="1472.0049999999999" y="360" />
              <mxPoint x="1412.0049999999999" y="360" />
              <mxPoint x="1292.0049999999999" y="360" />
              <mxPoint x="1002.0049999999999" y="360" />
              <mxPoint x="992.0049999999999" y="360" />
            </Array>
          </mxGeometry>
        </mxCell>
        <mxCell id="8MulAuokKk0QeZYwtANd-53" style="edgeStyle=none;curved=1;rounded=0;orthogonalLoop=1;jettySize=auto;html=1;exitX=0.5;exitY=1;exitDx=0;exitDy=0;fontSize=12;startSize=8;endSize=8;" parent="1" source="8MulAuokKk0QeZYwtANd-55" edge="1">
          <mxGeometry relative="1" as="geometry">
            <mxPoint x="893.0049999999999" y="650" as="targetPoint" />
          </mxGeometry>
        </mxCell>
        <mxCell id="8MulAuokKk0QeZYwtANd-54" value="No" style="edgeLabel;html=1;align=center;verticalAlign=middle;resizable=0;points=[];fontSize=12;" parent="8MulAuokKk0QeZYwtANd-53" vertex="1" connectable="0">
          <mxGeometry x="-0.219" y="-1" relative="1" as="geometry">
            <mxPoint as="offset" />
          </mxGeometry>
        </mxCell>
        <mxCell id="8MulAuokKk0QeZYwtANd-55" value="&lt;font color=&quot;#171717&quot;&gt;&lt;b&gt;player[oponente].hp &amp;lt;= 0?&lt;/b&gt;&lt;/font&gt;" style="rhombus;whiteSpace=wrap;html=1;fillColor=#f8cecc;strokeColor=#b85450;" parent="1" vertex="1">
          <mxGeometry x="795.4749999999999" y="520" width="195" height="80" as="geometry" />
        </mxCell>
        <mxCell id="8MulAuokKk0QeZYwtANd-56" value="GAMEOVER&lt;br&gt;&lt;br&gt;player[turno].name WINS!&lt;br&gt;&lt;br&gt;feedback()" style="shape=parallelogram;perimeter=parallelogramPerimeter;whiteSpace=wrap;html=1;fixedSize=1;fillColor=#e1d5e7;strokeColor=#9673a6;" parent="1" vertex="1">
          <mxGeometry x="523.385" y="507.94000000000005" width="225.97" height="100" as="geometry" />
        </mxCell>
        <mxCell id="8MulAuokKk0QeZYwtANd-57" value="" style="edgeStyle=none;curved=1;rounded=0;orthogonalLoop=1;jettySize=auto;html=1;fontSize=12;startSize=8;endSize=8;" parent="1" source="8MulAuokKk0QeZYwtANd-55" target="8MulAuokKk0QeZYwtANd-56" edge="1">
          <mxGeometry relative="1" as="geometry" />
        </mxCell>
        <mxCell id="8MulAuokKk0QeZYwtANd-58" value="yes" style="edgeLabel;html=1;align=center;verticalAlign=middle;resizable=0;points=[];fontSize=12;" parent="8MulAuokKk0QeZYwtANd-57" vertex="1" connectable="0">
          <mxGeometry x="-0.5009" y="-2" relative="1" as="geometry">
            <mxPoint as="offset" />
          </mxGeometry>
        </mxCell>
        <mxCell id="8MulAuokKk0QeZYwtANd-59" value="contador++" style="rounded=1;whiteSpace=wrap;html=1;fillColor=#d5e8d4;strokeColor=#82b366;" parent="1" vertex="1">
          <mxGeometry x="832.9749999999999" y="650" width="120" height="50" as="geometry" />
        </mxCell>
        <mxCell id="8MulAuokKk0QeZYwtANd-60" style="edgeStyle=none;curved=1;rounded=0;orthogonalLoop=1;jettySize=auto;html=1;entryX=1;entryY=0.5;entryDx=0;entryDy=0;fontSize=12;startSize=8;endSize=8;exitX=1;exitY=0.5;exitDx=0;exitDy=0;" parent="1" source="8MulAuokKk0QeZYwtANd-61" target="8MulAuokKk0QeZYwtANd-10" edge="1">
          <mxGeometry relative="1" as="geometry">
            <Array as="points">
              <mxPoint x="1152.0049999999999" y="750" />
              <mxPoint x="1152.0049999999999" y="740" />
              <mxPoint x="1152.0049999999999" y="680" />
              <mxPoint x="1152.0049999999999" y="500" />
              <mxPoint x="1152.0049999999999" y="330" />
              <mxPoint x="1152.0049999999999" y="280" />
              <mxPoint x="1152.0049999999999" y="276" />
            </Array>
          </mxGeometry>
        </mxCell>
        <mxCell id="8MulAuokKk0QeZYwtANd-61" value="turno = contador % 2" style="rounded=1;whiteSpace=wrap;html=1;fillColor=#d5e8d4;strokeColor=#82b366;" parent="1" vertex="1">
          <mxGeometry x="832.0049999999999" y="719.9999999999995" width="120" height="60" as="geometry" />
        </mxCell>
        <mxCell id="8MulAuokKk0QeZYwtANd-62" style="edgeStyle=none;curved=1;rounded=0;orthogonalLoop=1;jettySize=auto;html=1;fontSize=12;startSize=8;endSize=8;" parent="1" source="8MulAuokKk0QeZYwtANd-59" target="8MulAuokKk0QeZYwtANd-61" edge="1">
          <mxGeometry relative="1" as="geometry">
            <mxPoint x="892.9749999999999" y="729.9999999999995" as="targetPoint" />
          </mxGeometry>
        </mxCell>
        <mxCell id="8MulAuokKk0QeZYwtANd-63" value="&lt;font style=&quot;font-size: 13px;&quot;&gt;Mientras que la vida del jugador en turno es diferente de 0&lt;/font&gt;" style="shape=note;whiteSpace=wrap;html=1;backgroundOutline=1;darkOpacity=0.05;fillColor=#fff2cc;size=19;strokeColor=#d6b656;" parent="1" vertex="1">
          <mxGeometry x="523.3822289156626" y="242.41758241758242" width="131.08433734939757" height="73.62637362637363" as="geometry" />
        </mxCell>
        <mxCell id="8MulAuokKk0QeZYwtANd-64" style="edgeStyle=none;curved=1;rounded=0;orthogonalLoop=1;jettySize=auto;html=1;exitX=1;exitY=0.5;exitDx=0;exitDy=0;fontSize=12;startSize=8;endSize=8;" parent="1" source="8MulAuokKk0QeZYwtANd-65" edge="1">
          <mxGeometry relative="1" as="geometry">
            <mxPoint x="1552.0049999999999" y="417" as="targetPoint" />
          </mxGeometry>
        </mxCell>
        <mxCell id="8MulAuokKk0QeZYwtANd-65" value="Opción no válida" style="shape=parallelogram;perimeter=parallelogramPerimeter;whiteSpace=wrap;html=1;fixedSize=1;fillColor=#e1d5e7;strokeColor=#9673a6;" parent="1" vertex="1">
          <mxGeometry x="1422.0049999999999" y="396.82000000000016" width="110" height="40" as="geometry" />
        </mxCell>
        <mxCell id="8MulAuokKk0QeZYwtANd-66" style="edgeStyle=none;curved=1;rounded=0;orthogonalLoop=1;jettySize=auto;html=1;exitX=0.25;exitY=0;exitDx=0;exitDy=0;fontSize=12;startSize=8;endSize=8;" parent="1" source="8MulAuokKk0QeZYwtANd-65" target="8MulAuokKk0QeZYwtANd-65" edge="1">
          <mxGeometry relative="1" as="geometry" />
        </mxCell>
        <mxCell id="8MulAuokKk0QeZYwtANd-67" style="edgeStyle=none;curved=1;rounded=0;orthogonalLoop=1;jettySize=auto;html=1;exitX=1;exitY=0.5;exitDx=0;exitDy=0;entryX=0;entryY=0.5;entryDx=0;entryDy=0;fontSize=12;startSize=8;endSize=8;" parent="1" source="8MulAuokKk0QeZYwtANd-41" target="8MulAuokKk0QeZYwtANd-65" edge="1">
          <mxGeometry relative="1" as="geometry" />
        </mxCell>
        <mxCell id="8MulAuokKk0QeZYwtANd-68" value="" style="edgeStyle=none;curved=1;rounded=0;orthogonalLoop=1;jettySize=auto;html=1;fontSize=12;startSize=8;endSize=8;" parent="1" source="8MulAuokKk0QeZYwtANd-56" target="8MulAuokKk0QeZYwtANd-69" edge="1">
          <mxGeometry relative="1" as="geometry" />
        </mxCell>
        <mxCell id="8MulAuokKk0QeZYwtANd-69" value="Terminar" style="rounded=1;whiteSpace=wrap;html=1;fillColor=#fad9d5;strokeColor=#ae4132;" parent="1" vertex="1">
          <mxGeometry x="352" y="527.94" width="120" height="60" as="geometry" />
        </mxCell>
        <mxCell id="MD3KYwX28Hf3VP3Z5keq-3" style="edgeStyle=none;curved=1;rounded=0;orthogonalLoop=1;jettySize=auto;html=1;fontSize=12;startSize=8;endSize=8;" parent="1" source="MD3KYwX28Hf3VP3Z5keq-1" edge="1">
          <mxGeometry relative="1" as="geometry">
            <mxPoint x="-591.6215000000001" y="1396" as="targetPoint" />
          </mxGeometry>
        </mxCell>
        <mxCell id="MD3KYwX28Hf3VP3Z5keq-6" value="&lt;div&gt;no&lt;/div&gt;" style="edgeLabel;html=1;align=center;verticalAlign=middle;resizable=0;points=[];fontSize=12;" parent="MD3KYwX28Hf3VP3Z5keq-3" vertex="1" connectable="0">
          <mxGeometry x="-0.4" y="-2" relative="1" as="geometry">
            <mxPoint as="offset" />
          </mxGeometry>
        </mxCell>
        <mxCell id="MD3KYwX28Hf3VP3Z5keq-7" style="edgeStyle=none;curved=1;rounded=0;orthogonalLoop=1;jettySize=auto;html=1;fontSize=12;startSize=8;endSize=8;" parent="1" source="MD3KYwX28Hf3VP3Z5keq-1" target="MD3KYwX28Hf3VP3Z5keq-8" edge="1">
          <mxGeometry relative="1" as="geometry">
            <mxPoint x="-470" y="1326" as="targetPoint" />
          </mxGeometry>
        </mxCell>
        <mxCell id="MD3KYwX28Hf3VP3Z5keq-10" value="yes" style="edgeLabel;html=1;align=center;verticalAlign=middle;resizable=0;points=[];fontSize=12;" parent="MD3KYwX28Hf3VP3Z5keq-7" vertex="1" connectable="0">
          <mxGeometry x="-0.4877" y="-2" relative="1" as="geometry">
            <mxPoint as="offset" />
          </mxGeometry>
        </mxCell>
        <mxCell id="MD3KYwX28Hf3VP3Z5keq-1" value="player[turno].atk &amp;lt; 0?" style="rhombus;whiteSpace=wrap;html=1;fillColor=#f8cecc;strokeColor=#b85450;" parent="1" vertex="1">
          <mxGeometry x="-680" y="1286" width="176.75" height="80" as="geometry" />
        </mxCell>
        <mxCell id="MD3KYwX28Hf3VP3Z5keq-9" style="edgeStyle=none;curved=1;rounded=0;orthogonalLoop=1;jettySize=auto;html=1;entryX=1;entryY=0.5;entryDx=0;entryDy=0;fontSize=12;startSize=8;endSize=8;" parent="1" source="MD3KYwX28Hf3VP3Z5keq-8" edge="1">
          <mxGeometry relative="1" as="geometry">
            <Array as="points">
              <mxPoint x="-390" y="1426" />
            </Array>
            <mxPoint x="-531.62" y="1426" as="targetPoint" />
          </mxGeometry>
        </mxCell>
        <mxCell id="MD3KYwX28Hf3VP3Z5keq-8" value="player[turno].atk = 0" style="rounded=1;whiteSpace=wrap;html=1;fillColor=#d5e8d4;strokeColor=#82b366;" parent="1" vertex="1">
          <mxGeometry x="-461" y="1296" width="120" height="60" as="geometry" />
        </mxCell>
        <mxCell id="MD3KYwX28Hf3VP3Z5keq-13" style="edgeStyle=none;curved=1;rounded=0;orthogonalLoop=1;jettySize=auto;html=1;exitX=0.5;exitY=1;exitDx=0;exitDy=0;fontSize=12;startSize=8;endSize=8;" parent="1" source="MD3KYwX28Hf3VP3Z5keq-11" target="8MulAuokKk0QeZYwtANd-9" edge="1">
          <mxGeometry relative="1" as="geometry" />
        </mxCell>
        <mxCell id="MD3KYwX28Hf3VP3Z5keq-18" style="edgeStyle=none;curved=1;rounded=0;orthogonalLoop=1;jettySize=auto;html=1;fontSize=12;startSize=8;endSize=8;" parent="1" source="MD3KYwX28Hf3VP3Z5keq-17" target="MD3KYwX28Hf3VP3Z5keq-19" edge="1">
          <mxGeometry relative="1" as="geometry">
            <mxPoint x="183.5" y="1640" as="targetPoint" />
          </mxGeometry>
        </mxCell>
        <mxCell id="MD3KYwX28Hf3VP3Z5keq-17" value="funcion inflingir_daño(oponente, daño)" style="shape=note;whiteSpace=wrap;html=1;backgroundOutline=1;darkOpacity=0.05;fillColor=#fff2cc;strokeColor=#d6b656;" parent="1" vertex="1">
          <mxGeometry x="58.63" y="1497" width="267" height="100" as="geometry" />
        </mxCell>
        <mxCell id="aJ4x3dVP8UDvJIEj5JMi-84" style="edgeStyle=none;curved=1;rounded=0;orthogonalLoop=1;jettySize=auto;html=1;exitX=0.5;exitY=1;exitDx=0;exitDy=0;fontSize=12;startSize=8;endSize=8;" edge="1" parent="1" source="MD3KYwX28Hf3VP3Z5keq-30" target="aJ4x3dVP8UDvJIEj5JMi-83">
          <mxGeometry relative="1" as="geometry" />
        </mxCell>
        <mxCell id="MD3KYwX28Hf3VP3Z5keq-30" value="Restar el daño a los puntos de vida del oponente" style="whiteSpace=wrap;html=1;fillColor=#d5e8d4;strokeColor=#82b366;" parent="1" vertex="1">
          <mxGeometry x="132.13" y="1776" width="120" height="60" as="geometry" />
        </mxCell>
        <mxCell id="MD3KYwX28Hf3VP3Z5keq-31" value="" style="edgeStyle=none;curved=1;rounded=0;orthogonalLoop=1;jettySize=auto;html=1;fontSize=12;startSize=8;endSize=8;" parent="1" source="MD3KYwX28Hf3VP3Z5keq-19" target="MD3KYwX28Hf3VP3Z5keq-30" edge="1">
          <mxGeometry relative="1" as="geometry" />
        </mxCell>
        <mxCell id="MD3KYwX28Hf3VP3Z5keq-35" value="No" style="edgeLabel;html=1;align=center;verticalAlign=middle;resizable=0;points=[];fontSize=12;" parent="MD3KYwX28Hf3VP3Z5keq-31" vertex="1" connectable="0">
          <mxGeometry x="-0.5056" y="1" relative="1" as="geometry">
            <mxPoint as="offset" />
          </mxGeometry>
        </mxCell>
        <mxCell id="MD3KYwX28Hf3VP3Z5keq-34" style="edgeStyle=none;curved=1;rounded=0;orthogonalLoop=1;jettySize=auto;html=1;entryX=1;entryY=0.5;entryDx=0;entryDy=0;fontSize=12;startSize=8;endSize=8;" parent="1" source="MD3KYwX28Hf3VP3Z5keq-26" target="MD3KYwX28Hf3VP3Z5keq-30" edge="1">
          <mxGeometry relative="1" as="geometry">
            <Array as="points">
              <mxPoint x="680" y="1880" />
            </Array>
          </mxGeometry>
        </mxCell>
        <mxCell id="MD3KYwX28Hf3VP3Z5keq-65" value="Función curacion()" style="shape=note;whiteSpace=wrap;html=1;backgroundOutline=1;darkOpacity=0.05;fillColor=#fff2cc;strokeColor=#d6b656;" parent="1" vertex="1">
          <mxGeometry x="1590" y="1076" width="267" height="100" as="geometry" />
        </mxCell>
        <mxCell id="MD3KYwX28Hf3VP3Z5keq-120" value="Inicio" style="html=1;overflow=block;blockSpacing=1;whiteSpace=wrap;fontSize=16.7;spacing=3.8;strokeColor=#6c8ebf;fillOpacity=100;rounded=1;absoluteArcSize=1;arcSize=9;fillColor=#dae8fc;strokeWidth=NaN;lucidId=w0Khflt_Oblv;" parent="1" vertex="1">
          <mxGeometry x="1584.0100000000002" y="1210" width="120" height="60" as="geometry" />
        </mxCell>
        <mxCell id="MD3KYwX28Hf3VP3Z5keq-121" value="Esta disponible solo una vez por batalla, aunque si lleva 3 ganadas consecutivamente tendrá otra" style="html=1;overflow=block;blockSpacing=1;whiteSpace=wrap;fontSize=13;spacing=9;strokeColor=none;strokeOpacity=100;fillColor=#FFECA9;strokeWidth=0;lucidId=d1Kh~_yogx7V;" parent="1" vertex="1">
          <mxGeometry x="1980.0000000000002" y="1304" width="210" height="210" as="geometry" />
        </mxCell>
        <mxCell id="aJ4x3dVP8UDvJIEj5JMi-35" style="edgeStyle=none;curved=1;rounded=0;orthogonalLoop=1;jettySize=auto;html=1;exitX=0.5;exitY=1;exitDx=0;exitDy=0;entryX=0.5;entryY=0;entryDx=0;entryDy=0;fontSize=12;startSize=8;endSize=8;" edge="1" parent="1" source="MD3KYwX28Hf3VP3Z5keq-122" target="aJ4x3dVP8UDvJIEj5JMi-34">
          <mxGeometry relative="1" as="geometry" />
        </mxCell>
        <mxCell id="MD3KYwX28Hf3VP3Z5keq-122" value="nCuracion = numero_aleatorio(30% de los puntos de vida maximos, 1)." style="html=1;overflow=block;blockSpacing=1;whiteSpace=wrap;fontSize=16.7;spacing=9;strokeColor=#82b366;fillOpacity=100;rounded=1;absoluteArcSize=1;arcSize=9;fillColor=#d5e8d4;strokeWidth=NaN;lucidId=q2Kh6NkQpEl5;" parent="1" vertex="1">
          <mxGeometry x="1498.52" y="1320" width="290.99" height="120" as="geometry" />
        </mxCell>
        <mxCell id="MD3KYwX28Hf3VP3Z5keq-123" value="" style="html=1;jettySize=18;whiteSpace=wrap;fontSize=13;strokeColor=#3a414a;strokeOpacity=100;strokeWidth=0.8;rounded=1;arcSize=12;edgeStyle=orthogonalEdgeStyle;startArrow=none;endArrow=block;endFill=1;exitX=0.5;exitY=1.013;exitPerimeter=0;entryX=0.5;entryY=-0.006;entryPerimeter=0;lucidId=l4KhBERKst8b;" parent="1" source="MD3KYwX28Hf3VP3Z5keq-120" target="MD3KYwX28Hf3VP3Z5keq-122" edge="1">
          <mxGeometry width="100" height="100" relative="1" as="geometry">
            <Array as="points" />
          </mxGeometry>
        </mxCell>
        <mxCell id="aJ4x3dVP8UDvJIEj5JMi-49" style="edgeStyle=none;curved=1;rounded=0;orthogonalLoop=1;jettySize=auto;html=1;exitX=0.5;exitY=1;exitDx=0;exitDy=0;fontSize=12;startSize=8;endSize=8;" edge="1" parent="1" source="MD3KYwX28Hf3VP3Z5keq-127" target="MD3KYwX28Hf3VP3Z5keq-147">
          <mxGeometry relative="1" as="geometry" />
        </mxCell>
        <mxCell id="MD3KYwX28Hf3VP3Z5keq-127" value="&lt;font style=&quot;font-size: 12px;&quot;&gt;Ha recuperado $nCuracion puntos de vida &lt;/font&gt;" style="html=1;overflow=block;blockSpacing=1;whiteSpace=wrap;shape=parallelogram;perimeter=parallelogramPerimeter;anchorPointDirection=0;fontSize=16.7;spacing=3.8;strokeColor=#9673a6;fillOpacity=100;rounded=1;absoluteArcSize=1;arcSize=9;fillColor=#e1d5e7;strokeWidth=NaN;lucidId=t5Kh1ehaAtZC;" parent="1" vertex="1">
          <mxGeometry x="1554.0100000000002" y="1836" width="180" height="90" as="geometry" />
        </mxCell>
        <mxCell id="MD3KYwX28Hf3VP3Z5keq-132" value="Ahi en persionaje no se como indicar que personaje es el que esta ejecutando la curacion." style="html=1;overflow=block;blockSpacing=1;whiteSpace=wrap;fontSize=13;spacing=9;strokeColor=none;strokeOpacity=100;fillColor=#FFECA9;strokeWidth=0;lucidId=D8KhA9XyPoc~;" parent="1" vertex="1">
          <mxGeometry x="1940.0000000000002" y="1601" width="218" height="120" as="geometry" />
        </mxCell>
        <mxCell id="MD3KYwX28Hf3VP3Z5keq-134" value="La maxima curación sera del 30 porciento de los puntos de vida maximos&lt;br&gt;La curacion minima sera de 1" style="shape=note;whiteSpace=wrap;html=1;backgroundOutline=1;darkOpacity=0.05;fillColor=#fff2cc;strokeColor=#d6b656;" parent="1" vertex="1">
          <mxGeometry x="1224.54" y="1337.5" width="267" height="100" as="geometry" />
        </mxCell>
        <mxCell id="MD3KYwX28Hf3VP3Z5keq-140" value="" style="edgeStyle=none;curved=1;rounded=0;orthogonalLoop=1;jettySize=auto;html=1;fontSize=12;startSize=8;endSize=8;" parent="1" source="MD3KYwX28Hf3VP3Z5keq-137" target="MD3KYwX28Hf3VP3Z5keq-139" edge="1">
          <mxGeometry relative="1" as="geometry" />
        </mxCell>
        <mxCell id="aJ4x3dVP8UDvJIEj5JMi-2" style="edgeStyle=none;curved=1;rounded=0;orthogonalLoop=1;jettySize=auto;html=1;entryX=0.5;entryY=0;entryDx=0;entryDy=0;fontSize=12;startSize=8;endSize=8;" edge="1" parent="1" source="MD3KYwX28Hf3VP3Z5keq-137" target="aJ4x3dVP8UDvJIEj5JMi-1">
          <mxGeometry relative="1" as="geometry" />
        </mxCell>
        <mxCell id="MD3KYwX28Hf3VP3Z5keq-137" value="la vida es mayor a la vida maxima?" style="rhombus;whiteSpace=wrap;html=1;fillColor=#f8cecc;strokeColor=#b85450;" parent="1" vertex="1">
          <mxGeometry x="1555" y="1587" width="170" height="80" as="geometry" />
        </mxCell>
        <mxCell id="MD3KYwX28Hf3VP3Z5keq-144" style="edgeStyle=none;curved=1;rounded=0;orthogonalLoop=1;jettySize=auto;html=1;fontSize=12;startSize=8;endSize=8;entryX=1;entryY=0.5;entryDx=0;entryDy=0;" parent="1" source="MD3KYwX28Hf3VP3Z5keq-139" target="MD3KYwX28Hf3VP3Z5keq-127" edge="1">
          <mxGeometry relative="1" as="geometry">
            <mxPoint x="1845.4999999999998" y="1753" as="targetPoint" />
            <Array as="points">
              <mxPoint x="1855.99" y="1753" />
            </Array>
          </mxGeometry>
        </mxCell>
        <mxCell id="MD3KYwX28Hf3VP3Z5keq-139" value="la vida del jugador es igual a la vida maxima&lt;br&gt;nCuracion = 0" style="whiteSpace=wrap;html=1;fillColor=#d5e8d4;strokeColor=#82b366;" parent="1" vertex="1">
          <mxGeometry x="1785.5" y="1597" width="120" height="60" as="geometry" />
        </mxCell>
        <mxCell id="MD3KYwX28Hf3VP3Z5keq-141" value="yes" style="text;html=1;align=center;verticalAlign=middle;resizable=0;points=[];autosize=1;strokeColor=none;fillColor=none;fontSize=16;" parent="1" vertex="1">
          <mxGeometry x="1725.99" y="1604" width="50" height="30" as="geometry" />
        </mxCell>
        <mxCell id="aJ4x3dVP8UDvJIEj5JMi-50" style="edgeStyle=none;curved=1;rounded=0;orthogonalLoop=1;jettySize=auto;html=1;exitX=0.5;exitY=1;exitDx=0;exitDy=0;entryX=0.5;entryY=0;entryDx=0;entryDy=0;fontSize=12;startSize=8;endSize=8;" edge="1" parent="1" source="MD3KYwX28Hf3VP3Z5keq-147" target="MD3KYwX28Hf3VP3Z5keq-150">
          <mxGeometry relative="1" as="geometry" />
        </mxCell>
        <mxCell id="MD3KYwX28Hf3VP3Z5keq-147" value="Actualizar los valores en pantalla" style="whiteSpace=wrap;html=1;fillColor=#d5e8d4;strokeColor=#82b366;" parent="1" vertex="1">
          <mxGeometry x="1584.01" y="1962" width="120" height="60" as="geometry" />
        </mxCell>
        <mxCell id="MD3KYwX28Hf3VP3Z5keq-149" value="" style="shape=stencil(fZbdcgIhDIWfZm8zQAg/17Z9j85U606tdqz9e/tmZ0c0uJ47xP0I5JwEBl59bp8/1kNwn6fj4W39M76ctgM/DCGM++36OJ50NPDjwKvN4bh+PR6+9i/z74/n6ctp9H74nlb4nbmSKZeJCu5vngmZ6jzzNAO7cX8FVKEsBuBKrgKg9oAE8gkCbLeUhEoEQKSUDZDLeWYRKIl8MEDRmHwfyBrBG6Amyu4+kDxxMoB3jhwgYu7TVAsVkFcWCs4CTBEoF4RctKeOxHIf8IXYpikHikAIf+MNUW94AGSSaoAoFIE3AlOyeWU+p2E5S9yfQZcQILVuQOwZdJNoS9Ls3wA5u2XZTIHECqeJ9kDpSaauRiNVcAY1QhdBzeLBli5WazpkSsBLV25uRaqWRyFawTQzRRIQYirJzq5atkBqLfouwqUxLBepthWb10vrWZY6UOAeyKCCtDV625mm9gmUC4Wc3VLJMMIE1BsA2FW9JraVlQB7n3c9oMKhCLEvIM1zBPZ25/umNQ1tVEC2G+fFCC8g398O2hNQuQlVu752DBfA+q0ptnqO5JFmeuIuo9DY7KjY71UxdJV4EntifPWorW++R/dC4t7V3DlIB5cHx2bc7eb3yvX//QNFp+bHDT/+Aw==);lineShape=1;strokeColor=default;" parent="1" vertex="1">
          <mxGeometry x="1681.7799347374598" y="741.7921874308654" width="7.7875662868586915" height="7.775393693929497" as="geometry" />
        </mxCell>
        <mxCell id="aJ4x3dVP8UDvJIEj5JMi-54" style="edgeStyle=none;curved=1;rounded=0;orthogonalLoop=1;jettySize=auto;html=1;fontSize=12;startSize=8;endSize=8;" edge="1" parent="1" source="MD3KYwX28Hf3VP3Z5keq-150" target="aJ4x3dVP8UDvJIEj5JMi-52">
          <mxGeometry relative="1" as="geometry" />
        </mxCell>
        <mxCell id="aJ4x3dVP8UDvJIEj5JMi-55" value="No" style="edgeLabel;html=1;align=center;verticalAlign=middle;resizable=0;points=[];fontSize=12;" vertex="1" connectable="0" parent="aJ4x3dVP8UDvJIEj5JMi-54">
          <mxGeometry x="-0.167" y="-2" relative="1" as="geometry">
            <mxPoint as="offset" />
          </mxGeometry>
        </mxCell>
        <mxCell id="aJ4x3dVP8UDvJIEj5JMi-57" style="edgeStyle=none;curved=1;rounded=0;orthogonalLoop=1;jettySize=auto;html=1;exitX=1;exitY=0.5;exitDx=0;exitDy=0;entryX=0;entryY=0.5;entryDx=0;entryDy=0;fontSize=12;startSize=8;endSize=8;" edge="1" parent="1" source="MD3KYwX28Hf3VP3Z5keq-150" target="aJ4x3dVP8UDvJIEj5JMi-16">
          <mxGeometry relative="1" as="geometry" />
        </mxCell>
        <mxCell id="MD3KYwX28Hf3VP3Z5keq-150" value="&lt;font style=&quot;font-size: 10px;&quot;&gt;El jugador lleva 3 batallas ganadas consecutivamente?&lt;/font&gt;" style="rhombus;whiteSpace=wrap;html=1;fillColor=#f8cecc;strokeColor=#b85450;" parent="1" vertex="1">
          <mxGeometry x="1553.02" y="2050" width="180.99" height="80" as="geometry" />
        </mxCell>
        <mxCell id="aJ4x3dVP8UDvJIEj5JMi-47" style="edgeStyle=none;curved=1;rounded=0;orthogonalLoop=1;jettySize=auto;html=1;exitX=0.5;exitY=1;exitDx=0;exitDy=0;fontSize=12;startSize=8;endSize=8;" edge="1" parent="1" source="aJ4x3dVP8UDvJIEj5JMi-1" target="MD3KYwX28Hf3VP3Z5keq-127">
          <mxGeometry relative="1" as="geometry" />
        </mxCell>
        <mxCell id="aJ4x3dVP8UDvJIEj5JMi-1" value="Dado el número aleatorio de curación, se incrementa este valor el los puntos de vida (HP)" style="html=1;overflow=block;blockSpacing=1;whiteSpace=wrap;fontSize=16.7;spacing=9;strokeColor=#82b366;fillOpacity=100;rounded=1;absoluteArcSize=1;arcSize=9;fillColor=#d5e8d4;strokeWidth=NaN;lucidId=u4KhDVB~k3UE;" vertex="1" parent="1">
          <mxGeometry x="1554.0100000000002" y="1698" width="180" height="118" as="geometry" />
        </mxCell>
        <mxCell id="aJ4x3dVP8UDvJIEj5JMi-3" value="&lt;div&gt;no&lt;/div&gt;" style="text;html=1;align=center;verticalAlign=middle;resizable=0;points=[];autosize=1;strokeColor=none;fillColor=none;fontSize=16;" vertex="1" parent="1">
          <mxGeometry x="1640.99" y="1668" width="40" height="30" as="geometry" />
        </mxCell>
        <mxCell id="aJ4x3dVP8UDvJIEj5JMi-31" style="edgeStyle=none;curved=1;rounded=0;orthogonalLoop=1;jettySize=auto;html=1;entryX=0;entryY=0.5;entryDx=0;entryDy=0;fontSize=12;startSize=8;endSize=8;" edge="1" parent="1" source="aJ4x3dVP8UDvJIEj5JMi-16" target="aJ4x3dVP8UDvJIEj5JMi-30">
          <mxGeometry relative="1" as="geometry" />
        </mxCell>
        <mxCell id="aJ4x3dVP8UDvJIEj5JMi-62" style="edgeStyle=none;curved=1;rounded=0;orthogonalLoop=1;jettySize=auto;html=1;fontSize=12;startSize=8;endSize=8;" edge="1" parent="1" source="aJ4x3dVP8UDvJIEj5JMi-16" target="aJ4x3dVP8UDvJIEj5JMi-24">
          <mxGeometry relative="1" as="geometry" />
        </mxCell>
        <mxCell id="aJ4x3dVP8UDvJIEj5JMi-63" value="no" style="edgeLabel;html=1;align=center;verticalAlign=middle;resizable=0;points=[];fontSize=12;" vertex="1" connectable="0" parent="aJ4x3dVP8UDvJIEj5JMi-62">
          <mxGeometry x="-0.1343" y="3" relative="1" as="geometry">
            <mxPoint as="offset" />
          </mxGeometry>
        </mxCell>
        <mxCell id="aJ4x3dVP8UDvJIEj5JMi-16" value="Curaciones validas &amp;gt; 0?" style="rhombus;whiteSpace=wrap;html=1;fillColor=#f8cecc;strokeColor=#b85450;" vertex="1" parent="1">
          <mxGeometry x="1775.99" y="2050" width="150" height="80" as="geometry" />
        </mxCell>
        <mxCell id="aJ4x3dVP8UDvJIEj5JMi-28" style="edgeStyle=none;curved=1;rounded=0;orthogonalLoop=1;jettySize=auto;html=1;exitX=1;exitY=0.5;exitDx=0;exitDy=0;entryX=0;entryY=0.5;entryDx=0;entryDy=0;fontSize=12;startSize=8;endSize=8;" edge="1" parent="1" source="aJ4x3dVP8UDvJIEj5JMi-21" target="aJ4x3dVP8UDvJIEj5JMi-27">
          <mxGeometry relative="1" as="geometry" />
        </mxCell>
        <mxCell id="aJ4x3dVP8UDvJIEj5JMi-21" value="&quot;No tienes más curaciones&quot;" style="shape=parallelogram;perimeter=parallelogramPerimeter;whiteSpace=wrap;html=1;fixedSize=1;fillColor=#e1d5e7;strokeColor=#9673a6;" vertex="1" parent="1">
          <mxGeometry x="1935.99" y="1968" width="119.02" height="48" as="geometry" />
        </mxCell>
        <mxCell id="aJ4x3dVP8UDvJIEj5JMi-26" style="edgeStyle=none;curved=1;rounded=0;orthogonalLoop=1;jettySize=auto;html=1;entryX=0;entryY=0.5;entryDx=0;entryDy=0;fontSize=12;startSize=8;endSize=8;" edge="1" parent="1" source="aJ4x3dVP8UDvJIEj5JMi-24" target="aJ4x3dVP8UDvJIEj5JMi-21">
          <mxGeometry relative="1" as="geometry" />
        </mxCell>
        <mxCell id="aJ4x3dVP8UDvJIEj5JMi-24" value="Estado_curación = true" style="whiteSpace=wrap;html=1;fillColor=#d5e8d4;strokeColor=#82b366;" vertex="1" parent="1">
          <mxGeometry x="1798.62" y="1977" width="104.75" height="30" as="geometry" />
        </mxCell>
        <mxCell id="aJ4x3dVP8UDvJIEj5JMi-27" value="Salir" style="whiteSpace=wrap;html=1;fillColor=#FF6666;strokeColor=#b85450;" vertex="1" parent="1">
          <mxGeometry x="2065.99" y="1977" width="104.75" height="30" as="geometry" />
        </mxCell>
        <mxCell id="aJ4x3dVP8UDvJIEj5JMi-89" style="edgeStyle=none;curved=1;rounded=0;orthogonalLoop=1;jettySize=auto;html=1;exitX=1;exitY=0.5;exitDx=0;exitDy=0;fontSize=12;startSize=8;endSize=8;" edge="1" parent="1" source="aJ4x3dVP8UDvJIEj5JMi-30">
          <mxGeometry relative="1" as="geometry">
            <mxPoint x="2150.0000000000005" y="2090.272727272727" as="targetPoint" />
          </mxGeometry>
        </mxCell>
        <mxCell id="aJ4x3dVP8UDvJIEj5JMi-30" value="curaciones validas -= 1" style="whiteSpace=wrap;html=1;fillColor=#d5e8d4;strokeColor=#82b366;" vertex="1" parent="1">
          <mxGeometry x="1975.99" y="2075" width="140" height="30" as="geometry" />
        </mxCell>
        <mxCell id="aJ4x3dVP8UDvJIEj5JMi-36" style="edgeStyle=none;curved=1;rounded=0;orthogonalLoop=1;jettySize=auto;html=1;fontSize=12;startSize=8;endSize=8;" edge="1" parent="1" source="aJ4x3dVP8UDvJIEj5JMi-34" target="MD3KYwX28Hf3VP3Z5keq-137">
          <mxGeometry relative="1" as="geometry" />
        </mxCell>
        <mxCell id="aJ4x3dVP8UDvJIEj5JMi-37" value="No" style="edgeLabel;html=1;align=center;verticalAlign=middle;resizable=0;points=[];fontSize=12;" vertex="1" connectable="0" parent="aJ4x3dVP8UDvJIEj5JMi-36">
          <mxGeometry x="-0.1582" y="1" relative="1" as="geometry">
            <mxPoint as="offset" />
          </mxGeometry>
        </mxCell>
        <mxCell id="aJ4x3dVP8UDvJIEj5JMi-40" value="" style="edgeStyle=none;curved=1;rounded=0;orthogonalLoop=1;jettySize=auto;html=1;fontSize=12;startSize=8;endSize=8;entryX=0.122;entryY=0.481;entryDx=0;entryDy=0;entryPerimeter=0;" edge="1" parent="1" source="aJ4x3dVP8UDvJIEj5JMi-34" target="aJ4x3dVP8UDvJIEj5JMi-41">
          <mxGeometry relative="1" as="geometry">
            <mxPoint x="1750" y="1514.753881060425" as="targetPoint" />
            <Array as="points">
              <mxPoint x="1740" y="1517" />
            </Array>
          </mxGeometry>
        </mxCell>
        <mxCell id="aJ4x3dVP8UDvJIEj5JMi-45" value="Yes" style="edgeLabel;html=1;align=center;verticalAlign=middle;resizable=0;points=[];fontSize=12;" vertex="1" connectable="0" parent="aJ4x3dVP8UDvJIEj5JMi-40">
          <mxGeometry x="-0.3823" y="3" relative="1" as="geometry">
            <mxPoint as="offset" />
          </mxGeometry>
        </mxCell>
        <mxCell id="aJ4x3dVP8UDvJIEj5JMi-34" value="Estado_curacion = true?" style="rhombus;whiteSpace=wrap;html=1;fillColor=#f8cecc;strokeColor=#b85450;" vertex="1" parent="1">
          <mxGeometry x="1557.52" y="1477" width="170" height="80" as="geometry" />
        </mxCell>
        <mxCell id="aJ4x3dVP8UDvJIEj5JMi-43" style="edgeStyle=none;curved=1;rounded=0;orthogonalLoop=1;jettySize=auto;html=1;fontSize=12;startSize=8;endSize=8;" edge="1" parent="1" source="aJ4x3dVP8UDvJIEj5JMi-41" target="aJ4x3dVP8UDvJIEj5JMi-42">
          <mxGeometry relative="1" as="geometry" />
        </mxCell>
        <mxCell id="aJ4x3dVP8UDvJIEj5JMi-41" value="&quot;No tienes más curaciones&quot;" style="shape=parallelogram;perimeter=parallelogramPerimeter;whiteSpace=wrap;html=1;fixedSize=1;fillColor=#e1d5e7;strokeColor=#9673a6;" vertex="1" parent="1">
          <mxGeometry x="1750" y="1493" width="119.02" height="48" as="geometry" />
        </mxCell>
        <mxCell id="aJ4x3dVP8UDvJIEj5JMi-42" value="Salir" style="whiteSpace=wrap;html=1;fillColor=#FF6666;strokeColor=#b85450;" vertex="1" parent="1">
          <mxGeometry x="1889.9999999999998" y="1502" width="104.75" height="30" as="geometry" />
        </mxCell>
        <mxCell id="aJ4x3dVP8UDvJIEj5JMi-96" style="edgeStyle=none;curved=1;rounded=0;orthogonalLoop=1;jettySize=auto;html=1;exitX=0.5;exitY=1;exitDx=0;exitDy=0;entryX=0.5;entryY=0;entryDx=0;entryDy=0;fontSize=12;startSize=8;endSize=8;" edge="1" parent="1" source="aJ4x3dVP8UDvJIEj5JMi-52" target="aJ4x3dVP8UDvJIEj5JMi-95">
          <mxGeometry relative="1" as="geometry" />
        </mxCell>
        <mxCell id="aJ4x3dVP8UDvJIEj5JMi-52" value="Estado_curación = true" style="whiteSpace=wrap;html=1;fillColor=#d5e8d4;strokeColor=#82b366;" vertex="1" parent="1">
          <mxGeometry x="1591.6399999999999" y="2170" width="104.75" height="30" as="geometry" />
        </mxCell>
        <mxCell id="aJ4x3dVP8UDvJIEj5JMi-58" value="yes" style="text;html=1;align=center;verticalAlign=middle;resizable=0;points=[];autosize=1;strokeColor=none;fillColor=none;fontSize=16;" vertex="1" parent="1">
          <mxGeometry x="1725.99" y="2060" width="50" height="30" as="geometry" />
        </mxCell>
        <mxCell id="aJ4x3dVP8UDvJIEj5JMi-64" value="Función supercombo(int turno, int oponente)" style="shape=note;whiteSpace=wrap;html=1;backgroundOutline=1;darkOpacity=0.05;fillColor=#fff2cc;strokeColor=#d6b656;" vertex="1" parent="1">
          <mxGeometry x="1803.3100000000002" y="339.78" width="267" height="100" as="geometry" />
        </mxCell>
        <mxCell id="aJ4x3dVP8UDvJIEj5JMi-70" style="edgeStyle=none;curved=1;rounded=0;orthogonalLoop=1;jettySize=auto;html=1;fontSize=12;startSize=8;endSize=8;" edge="1" parent="1" source="aJ4x3dVP8UDvJIEj5JMi-65" target="aJ4x3dVP8UDvJIEj5JMi-71">
          <mxGeometry relative="1" as="geometry">
            <mxPoint x="1936.3100000000002" y="659.78" as="targetPoint" />
          </mxGeometry>
        </mxCell>
        <mxCell id="aJ4x3dVP8UDvJIEj5JMi-65" value="int daño = (player[turno].atk * 2) - player[oponente].def" style="rounded=1;whiteSpace=wrap;html=1;fillColor=#d5e8d4;strokeColor=#82b366;" vertex="1" parent="1">
          <mxGeometry x="1800.68" y="539.78" width="272.25" height="80" as="geometry" />
        </mxCell>
        <mxCell id="aJ4x3dVP8UDvJIEj5JMi-68" style="edgeStyle=none;curved=1;rounded=0;orthogonalLoop=1;jettySize=auto;html=1;exitX=0.5;exitY=1;exitDx=0;exitDy=0;fontSize=12;startSize=8;endSize=8;" edge="1" parent="1" source="aJ4x3dVP8UDvJIEj5JMi-67" target="aJ4x3dVP8UDvJIEj5JMi-65">
          <mxGeometry relative="1" as="geometry" />
        </mxCell>
        <mxCell id="aJ4x3dVP8UDvJIEj5JMi-67" value="&lt;div&gt;Inicio&lt;/div&gt;" style="rounded=1;whiteSpace=wrap;html=1;fillColor=#dae8fc;strokeColor=#6c8ebf;" vertex="1" parent="1">
          <mxGeometry x="1876.8100000000002" y="449.78" width="120" height="60" as="geometry" />
        </mxCell>
        <mxCell id="aJ4x3dVP8UDvJIEj5JMi-72" style="edgeStyle=none;curved=1;rounded=0;orthogonalLoop=1;jettySize=auto;html=1;fontSize=12;startSize=8;endSize=8;" edge="1" parent="1" source="aJ4x3dVP8UDvJIEj5JMi-71" target="aJ4x3dVP8UDvJIEj5JMi-73">
          <mxGeometry relative="1" as="geometry">
            <mxPoint x="2053.31" y="697.28" as="targetPoint" />
          </mxGeometry>
        </mxCell>
        <mxCell id="aJ4x3dVP8UDvJIEj5JMi-74" value="yes" style="edgeLabel;html=1;align=center;verticalAlign=middle;resizable=0;points=[];fontSize=12;" vertex="1" connectable="0" parent="aJ4x3dVP8UDvJIEj5JMi-72">
          <mxGeometry x="-0.4477" y="-1" relative="1" as="geometry">
            <mxPoint as="offset" />
          </mxGeometry>
        </mxCell>
        <mxCell id="aJ4x3dVP8UDvJIEj5JMi-75" style="edgeStyle=none;curved=1;rounded=0;orthogonalLoop=1;jettySize=auto;html=1;fontSize=12;startSize=8;endSize=8;" edge="1" parent="1" source="aJ4x3dVP8UDvJIEj5JMi-71">
          <mxGeometry relative="1" as="geometry">
            <mxPoint x="1936.8" y="779.78" as="targetPoint" />
          </mxGeometry>
        </mxCell>
        <mxCell id="aJ4x3dVP8UDvJIEj5JMi-76" value="no" style="edgeLabel;html=1;align=center;verticalAlign=middle;resizable=0;points=[];fontSize=12;" vertex="1" connectable="0" parent="aJ4x3dVP8UDvJIEj5JMi-75">
          <mxGeometry x="-0.1765" y="2" relative="1" as="geometry">
            <mxPoint y="1" as="offset" />
          </mxGeometry>
        </mxCell>
        <mxCell id="aJ4x3dVP8UDvJIEj5JMi-71" value="El daño es menor a 0?" style="rhombus;whiteSpace=wrap;html=1;fillColor=#f8cecc;strokeColor=#b85450;" vertex="1" parent="1">
          <mxGeometry x="1858.55" y="657.28" width="156.5" height="80" as="geometry" />
        </mxCell>
        <mxCell id="aJ4x3dVP8UDvJIEj5JMi-73" value="Daño = 0" style="rounded=0;whiteSpace=wrap;html=1;fillColor=#d5e8d4;strokeColor=#82b366;" vertex="1" parent="1">
          <mxGeometry x="2070.31" y="667.28" width="120" height="60" as="geometry" />
        </mxCell>
        <mxCell id="aJ4x3dVP8UDvJIEj5JMi-111" style="edgeStyle=none;curved=1;rounded=0;orthogonalLoop=1;jettySize=auto;html=1;exitX=0.5;exitY=1;exitDx=0;exitDy=0;entryX=0.5;entryY=0;entryDx=0;entryDy=0;fontSize=12;startSize=8;endSize=8;" edge="1" parent="1" source="aJ4x3dVP8UDvJIEj5JMi-77" target="aJ4x3dVP8UDvJIEj5JMi-102">
          <mxGeometry relative="1" as="geometry" />
        </mxCell>
        <mxCell id="aJ4x3dVP8UDvJIEj5JMi-77" value="Inflingir_daño(oponente, daño)" style="rounded=1;whiteSpace=wrap;html=1;fillColor=#d5e8d4;strokeColor=#82b366;" vertex="1" parent="1">
          <mxGeometry x="1858.5399999999997" y="776.78" width="156.51" height="60" as="geometry" />
        </mxCell>
        <mxCell id="aJ4x3dVP8UDvJIEj5JMi-83" value="El jugador $oponente ha perdido $daño puntos de vida" style="shape=parallelogram;perimeter=parallelogramPerimeter;whiteSpace=wrap;html=1;fixedSize=1;fillColor=#e1d5e7;strokeColor=#9673a6;" vertex="1" parent="1">
          <mxGeometry x="73.19499999999988" y="1870" width="237.87" height="60" as="geometry" />
        </mxCell>
        <mxCell id="aJ4x3dVP8UDvJIEj5JMi-85" style="edgeStyle=none;curved=1;rounded=0;orthogonalLoop=1;jettySize=auto;html=1;exitX=0.5;exitY=1;exitDx=0;exitDy=0;fontSize=12;startSize=8;endSize=8;" edge="1" parent="1" source="aJ4x3dVP8UDvJIEj5JMi-83" target="MD3KYwX28Hf3VP3Z5keq-33">
          <mxGeometry relative="1" as="geometry" />
        </mxCell>
        <mxCell id="aJ4x3dVP8UDvJIEj5JMi-90" value="Salir" style="whiteSpace=wrap;html=1;fillColor=#FF6666;strokeColor=#b85450;" vertex="1" parent="1">
          <mxGeometry x="2150" y="2075" width="104.75" height="30" as="geometry" />
        </mxCell>
        <mxCell id="aJ4x3dVP8UDvJIEj5JMi-91" value="Salir" style="whiteSpace=wrap;html=1;fillColor=#FF6666;strokeColor=#b85450;" vertex="1" parent="1">
          <mxGeometry x="139.7499999999999" y="2050" width="104.75" height="30" as="geometry" />
        </mxCell>
        <mxCell id="aJ4x3dVP8UDvJIEj5JMi-92" style="edgeStyle=none;curved=1;rounded=0;orthogonalLoop=1;jettySize=auto;html=1;exitX=0.5;exitY=1;exitDx=0;exitDy=0;entryX=0.5;entryY=0;entryDx=0;entryDy=0;fontSize=12;startSize=8;endSize=8;" edge="1" parent="1" source="MD3KYwX28Hf3VP3Z5keq-33" target="aJ4x3dVP8UDvJIEj5JMi-91">
          <mxGeometry relative="1" as="geometry" />
        </mxCell>
        <mxCell id="aJ4x3dVP8UDvJIEj5JMi-93" value="Salir" style="whiteSpace=wrap;html=1;fillColor=#FF6666;strokeColor=#b85450;" vertex="1" parent="1">
          <mxGeometry x="-644.0000000000001" y="1597" width="104.75" height="30" as="geometry" />
        </mxCell>
        <mxCell id="aJ4x3dVP8UDvJIEj5JMi-95" value="Salir" style="whiteSpace=wrap;html=1;fillColor=#FF6666;strokeColor=#b85450;" vertex="1" parent="1">
          <mxGeometry x="1591.6399999999999" y="2230" width="104.75" height="30" as="geometry" />
        </mxCell>
        <mxCell id="aJ4x3dVP8UDvJIEj5JMi-102" value="Salir" style="whiteSpace=wrap;html=1;fillColor=#FF6666;strokeColor=#b85450;" vertex="1" parent="1">
          <mxGeometry x="1884.4200000000003" y="881.78" width="104.75" height="30" as="geometry" />
        </mxCell>
        <mxCell id="aJ4x3dVP8UDvJIEj5JMi-105" style="edgeStyle=none;curved=1;rounded=0;orthogonalLoop=1;jettySize=auto;html=1;fontSize=12;startSize=8;endSize=8;" edge="1" parent="1" target="aJ4x3dVP8UDvJIEj5JMi-108">
          <mxGeometry relative="1" as="geometry">
            <mxPoint x="-626.25" y="1681" as="sourcePoint" />
          </mxGeometry>
        </mxCell>
        <mxCell id="aJ4x3dVP8UDvJIEj5JMi-109" value="Es posible que esta funcionalidad esté sujeta a cambios si se integra un menu controlado con flechas" style="shape=note;whiteSpace=wrap;html=1;backgroundOutline=1;darkOpacity=0.05;fillColor=#fff2cc;size=19;fontStyle=0;strokeColor=#d6b656;" vertex="1" parent="1">
          <mxGeometry x="1187.49" y="280" width="192.51" height="59.78" as="geometry" />
        </mxCell>
      </root>
    </mxGraphModel>
  </diagram>
</mxfile>
